<svg width="16" height="16" viewBox="0 0 16 16" xmlns="http://www.w3.org/2000/svg">
    <path d="M8 0a8 8 0 1 0 0 16A8 8 0 0 0 8 0zM5.922 11.139H4.29v-4.91h1.632v4.91zm-.816-5.581h-.01c-.548 0-.902-.377-.902-.848 0-.482.365-.849.923-.849s.902.367.912.849c0 .471-.354.848-.923.848zm6.7 5.58h-1.631V8.512c0-.66-.237-1.11-.828-1.11-.45 0-.718.304-.836.598a1.12 1.12 0 0 0-.054.397v2.742H6.825s.021-4.449 0-4.91h1.632v.696c.216-.335.604-.811 1.471-.811 1.073 0 1.878.702 1.878 2.21v2.816z" fill="#FFF" fill-rule="evenodd" opacity=".5"/>
</svg>
