<svg width="16" height="16" viewBox="0 0 16 16" xmlns="http://www.w3.org/2000/svg">
    <path d="M8 0a8 8 0 0 0 0 16c2.986 0 4.094-1.163 4.498-2.139a2.68 2.68 0 0 0-.12-2.401c.44-.49.435-1.235-.012-1.719l-.954-.954a1.289 1.289 0 0 0-1.816.067l-.141.14a18.786 18.786 0 0 1-2.456-2.452l.141-.14a1.29 1.29 0 0 0 .07-1.816l-.953-.956a1.288 1.288 0 0 0-1.816.072l-.582.582a1.811 1.811 0 0 0-.32 2.217 19.193 19.193 0 0 0 5.957 5.958c.263.164.566.25.876.247.347-.003.687-.103.981-.29.077.387.01.788-.186 1.129-.44.734-1.534 1.12-3.167 1.12a6.664 6.664 0 1 1 5.5-2.898.667.667 0 0 0 1.1.755A8.001 8.001 0 0 0 8 0z" fill="#FFF" fill-rule="nonzero"/>
</svg>
