<?xml version="1.0" encoding="UTF-8"?>
<svg width="14px" height="14px" viewBox="0 0 14 14" version="1.1" xmlns="http://www.w3.org/2000/svg" xmlns:xlink="http://www.w3.org/1999/xlink">
    <title>116FBFD6-474F-476A-A097-1B6FD56BEA61</title>
    <g id="Page-1" stroke="none" stroke-width="1" fill="none" fill-rule="evenodd">
        <g id="Runazerbaijan" transform="translate(-1161.000000, -2901.000000)" fill="#FBE500">
            <g id="Group-3" transform="translate(1020.000000, 2535.000000)">
                <g id="rating-star-1" transform="translate(141.000000, 366.000000)">
                    <path d="M7.433,0.518 L9.422,4.495 L13.248,4.878 C13.4343166,4.89624691 13.5934027,5.02030525 13.656503,5.19655839 C13.7196033,5.37281153 13.6754011,5.56964906 13.543,5.702 L10.39,8.854 L11.559,13.137 C11.6088549,13.321258 11.5459936,13.5176241 11.3984022,13.6386749 C11.2508109,13.7597257 11.0459402,13.7829468 10.875,13.698 L7,11.76 L3.125,13.7 C2.95416016,13.78531 2.74912949,13.7621974 2.60156928,13.640995 C2.45400906,13.5197925 2.39150491,13.3231584 2.442,13.139 L3.61,8.854 L0.457,5.7 C0.324598899,5.56764906 0.28039666,5.37081153 0.343496996,5.19455839 C0.406597332,5.01830525 0.565683408,4.89424691 0.752,4.876 L4.578,4.493 L6.567,0.516 C6.6493253,0.352110011 6.81721387,0.248831627 7.00061835,0.249253896 C7.18402283,0.249678761 7.35143257,0.353731506 7.433,0.518 L7.433,0.518 Z" id="Path"></path>
                </g>
            </g>
        </g>
    </g>
</svg>