<svg width="16" height="16" viewBox="0 0 16 16" xmlns="http://www.w3.org/2000/svg">
    <path d="M8 0a8 8 0 1 0 0 16A8 8 0 0 0 8 0zm4.22 5.428c-.037.063-.227.28-.43.479-.344.341-.362.378-.362.664 0 .44-.209 1.36-.418 1.863-.387.944-1.216 1.918-2.046 2.41-1.167.689-2.72.863-4.029.459-.436-.137-1.185-.485-1.185-.546 0-.02.227-.044.503-.05a3.438 3.438 0 0 0 1.646-.46l.332-.199-.381-.13c-.54-.186-1.026-.615-1.148-1.018-.037-.131-.025-.138.319-.138l.356-.005-.301-.143c-.357-.181-.682-.485-.842-.796-.117-.223-.264-.788-.221-.831.013-.019.141.018.288.068.424.155.48.118.234-.143-.46-.472-.602-1.173-.381-1.838l.104-.298.406.404c.83.813 1.806 1.298 2.924 1.44l.306.037-.018-.304c-.055-.789.43-1.51 1.198-1.789.283-.1.762-.112 1.075-.025.123.037.356.162.522.273l.301.205.332-.106c.184-.055.43-.149.54-.211.104-.056.197-.087.197-.069 0 .106-.228.466-.418.665-.258.28-.184.304.338.118.314-.103.32-.103.259.014z" fill="#FFF" fill-rule="evenodd" opacity=".5"/>
</svg>
