<svg width="16" height="16" viewBox="0 0 16 16" xmlns="http://www.w3.org/2000/svg">
    <path d="M8 0a8 8 0 1 1 0 16A8 8 0 0 1 8 0zm.236 4.742h-.472c-.53.003-1.854.02-2.806.093-.17.021-.54.023-.87.393-.26.281-.345.92-.345.92s-.087.75-.087 1.5v.703c0 .75.087 1.5.087 1.5s.085.638.345.919c.331.369.764.357.958.396.242.025.673.043 1.132.057l.347.01c.753.019 1.475.026 1.475.026h.153c.464-.004 1.884-.02 2.888-.096.17-.022.54-.024.871-.393.26-.28.345-.92.345-.92s.087-.75.087-1.5v-.702c0-.75-.087-1.5-.087-1.5s-.085-.64-.345-.921c-.33-.369-.701-.371-.87-.392-.952-.074-2.276-.09-2.806-.093zM6.915 6.37 9.631 8 6.915 9.63V6.37z" fill="#FFF" fill-rule="evenodd" opacity=".5"/>
</svg>
