<svg width="107" height="37" viewBox="0 0 107 37" xmlns="http://www.w3.org/2000/svg">
    <g fill="none" fill-rule="evenodd">
        <path d="m77.515 14.644-.103.111v.057l.103-.168" fill="#FFFFFE"/>
        <path d="M78.604 22.96h-1.192v1.434c2.714 2.91 8.069 4.32 12.641 4.62 3.753.244 7.623.03 11.545-.536l-.715-.841c-10.332.923-19.17-.639-22.279-4.676" fill="#273566"/>
        <path d="M87.457 22.96h-6.102c3.584 2.717 10.366 3.692 18.312 3.247l-2.015-2.37c-3.823.14-7.304-.115-10.195-.876M87.465 31.91c-3.87-.294-7.506-1.503-10.053-3.394v6.194h29.485l-3.564-4.191c-5.521 1.212-10.902 1.778-15.868 1.39" fill="#273566"/>
        <path d="M87.168 6.041a.35.35 0 0 1 .254-.101h.4c.131.002.256.057.35.145a.29.29 0 0 1 .032.038l1.81 2.182c.095-.013.193-.027.294-.038a40.409 40.409 0 0 1 3.806-.26V6.532a.66.66 0 0 0-.016-.11l-1.136-4.031a.355.355 0 0 1 .343-.456h.86a.458.458 0 0 1 .394.236l.858 1.598h.596c.1-.002.196.038.268.11a.386.386 0 0 1 .113.271v.44a.379.379 0 0 1-.334.379l.12.224h.65a.387.387 0 0 1 .383.384l-.001.438a.381.381 0 0 1-.379.382h-.007l.842 1.572c.24-.005.468-.012.685-.016 1.275-.034 2.197-.06 2.982.055.97.14 1.795.471 2.206.882a.797.797 0 0 1 .24.403.366.366 0 0 1 0 .2.815.815 0 0 1-.239.396c-.413.412-1.237.743-2.208.884-.781.113-1.7.088-2.972.055l-.694-.017-.842 1.57.004.001c.1-.001.198.04.27.112.071.072.113.17.113.273v.437a.384.384 0 0 1-.38.383h-.652l-.121.223a.382.382 0 0 1 .334.38v.44a.385.385 0 0 1-.381.382h-.596l-.859 1.599a.46.46 0 0 1-.387.235l-.866-.001a.348.348 0 0 1-.254-.104.357.357 0 0 1-.088-.357l1.134-4.023a.546.546 0 0 0 .016-.111v-1.477a40.882 40.882 0 0 1-3.805-.259c-.101-.013-.199-.025-.294-.04l-1.817 2.19-.023.026a.513.513 0 0 1-.344.15h-.412a.353.353 0 0 1-.252-.102l-.002-.002a.352.352 0 0 1-.076-.372l.238-.67.496-1.401a.468.468 0 0 0 .015-.09v-.237a1.234 1.234 0 0 1-.323-.212.504.504 0 0 1-.16-.356v-.002l-.001-.01a.51.51 0 0 1 .16-.358c.079-.077.187-.148.325-.214l-.001-.233a.456.456 0 0 0-.014-.092l-.735-2.076a.347.347 0 0 1 .08-.372m-7.647 7.806c-1.735 4.096-.839 7.088 1.834 9.114h6.102c-3.227-.85-5.72-2.33-7.114-4.61-1.843-3.963 2.138-7.942 4.834-9.185.46-.213.883-.347 1.232-.386-.377.192-.72.4-1.035.618-2.497 1.728-3.059 4.204-1.957 6.513 1.734 3.594 6.272 5.2 12.189 5.52 2.17.117 4.526.062 6.998-.132a9.77 9.77 0 0 0 4.293-8.103V9.8c0-5.394-4.35-9.766-9.716-9.766H77.412v14.721l.103-.11-.103.167v8.149h1.192c-1.741-2.262-1.685-5.3.917-9.114" fill="#E1742B"/>
        <path d="M87.823 8.49a.456.456 0 0 1 .014.091v.233a1.19 1.19 0 0 0-.324.214.511.511 0 0 0-.16.358v.01l.001.002c.002.13.055.25.16.355.079.076.184.146.323.213v.237c0 .018-.01.072-.015.09l-.496 1.4-.238.67c-.049.131-.02.277.076.373l.002.002a.354.354 0 0 0 .252.102h.412a.513.513 0 0 0 .343-.15c.011-.01.02-.02.024-.025l1.817-2.19c.095.014.193.026.294.04 1.086.133 2.399.221 3.805.258v1.477a.533.533 0 0 1-.016.11l-1.134 4.024a.355.355 0 0 0 .342.46l.867.002a.462.462 0 0 0 .386-.235l.859-1.599h.596a.38.38 0 0 0 .381-.382v-.44a.381.381 0 0 0-.335-.38l.122-.223h.65a.386.386 0 0 0 .381-.383v-.437c0-.102-.04-.2-.112-.273a.374.374 0 0 0-.27-.111l-.004-.002.842-1.57c.244.006.475.01.694.017 1.272.033 2.19.058 2.972-.055.97-.141 1.795-.472 2.208-.884a.817.817 0 0 0 .237-.395.37.37 0 0 0 .001-.201.797.797 0 0 0-.24-.403c-.41-.41-1.235-.742-2.205-.882-.785-.114-1.707-.09-2.982-.055-.217.004-.444.011-.685.016l-.842-1.571h.007a.381.381 0 0 0 .379-.382l.001-.438a.386.386 0 0 0-.383-.385h-.65l-.12-.224a.38.38 0 0 0 .333-.38l.001-.439c0-.1-.04-.197-.113-.27a.367.367 0 0 0-.268-.111h-.596l-.858-1.598a.458.458 0 0 0-.393-.236h-.86a.354.354 0 0 0-.343.456l1.135 4.031a.66.66 0 0 1 .016.11v1.475a40.401 40.401 0 0 0-3.806.26c-.101.011-.199.025-.295.038l-1.81-2.182a.264.264 0 0 0-.032-.038.526.526 0 0 0-.348-.145h-.401a.347.347 0 0 0-.334.473l.735 2.076z" fill="#FFFFFE"/>
        <path d="M24.766.163h6.676v18.059c0 3.7.536 6.268 1.607 7.703 1.072 1.437 2.885 2.154 5.44 2.154 2.527 0 4.327-.704 5.399-2.112 1.071-1.409 1.607-3.962 1.607-7.663V.122h1.607v17.81c0 2.154-.123 3.893-.37 5.219-.248 1.298-.701 2.471-1.36 3.52-.66 1.022-1.608 1.74-2.844 2.154-1.236.414-2.858.62-4.863.62-3.847 0-6.443-.869-7.79-2.608-1.346-1.712-2.019-4.708-2.019-8.988V2.276l-.04.083-3.05-2.196zM52.13.04h5.316L72.86 23.605V.039h1.607v28.993h-2.35l-15.37-23.36v23.36h-1.609V2.359z" fill="#E1742B"/>
        <path d="M3.001 32.238h.416v-.696l.523-.127v.823h.938l-.063.159H3.94v1.83c0 .438.063.729.189.872.126.144.34.216.642.216a.458.458 0 0 0 .095-.007l-.026.165h-.069c-.57 0-.941-.093-1.111-.279-.166-.18-.25-.573-.25-1.177v-1.62h-.415l.006-.16zM7.125 33.22c.117-.697.445-1.045.982-1.045.215 0 .379.059.492.177l-.139.298a.75.75 0 0 0-.503-.184c-.555 0-.832.585-.832 1.754v1.184h-.53V32.58l-.434-.342h.964v.981zM10.393 33.833c.008.543.067.914.176 1.113.113.204.277.305.491.305.278 0 .508-.125.693-.375.185-.25.277-.6.277-1.049a5.42 5.42 0 0 0-.031-.61 1.915 1.915 0 0 0-.114-.458.66.66 0 0 0-.245-.318.728.728 0 0 0-.41-.108c-.31 0-.525.128-.642.382-.118.25-.177.627-.177 1.131l-.018-.013zm2.614 1.583h-.964v-.835c-.088.29-.227.512-.416.664a1.06 1.06 0 0 1-.686.228c-.706 0-1.059-.536-1.059-1.608 0-.595.095-1.026.284-1.291.189-.266.546-.4 1.07-.4.521 0 .876.128 1.065.38.19.254.284.655.284 1.203v1.304l.422.355zM15.714 35.403l-.99-2.823-.434-.342h.857l1.008 2.849 1.026-2.85h.19l-1.147 3.166zM19.97 32.333c-.512 0-.77.467-.775 1.399h1.568c-.008-.45-.07-.794-.189-1.033-.121-.24-.323-.36-.604-.36v-.006zm1.235 2.431c-.118.245-.258.424-.423.538-.163.11-.415.165-.755.165-.198 0-.368-.022-.51-.064a1.48 1.48 0 0 1-.366-.152.784.784 0 0 1-.246-.24 1.318 1.318 0 0 1-.15-.279 1.256 1.256 0 0 1-.076-.323 4.264 4.264 0 0 1-.02-.177 1.6 1.6 0 0 1-.005-.127v-.297c0-.557.094-.969.283-1.234.19-.266.53-.4 1.02-.4.227 0 .416.028.567.083.155.06.281.135.378.228.097.097.173.22.227.367.054.152.092.308.113.469a4.836 4.836 0 0 1 .031.57h-2.097c.004.487.074.845.208 1.074.13.23.374.343.73.343.232 0 .42-.05.568-.152.142-.1.258-.259.346-.474l.177.082zM23.52 35.403h-.529v-4.406l-.434-.342h.964zM26.887 33.833c.009.543.067.914.177 1.113.113.204.277.305.49.305.278 0 .51-.125.694-.375.185-.25.277-.6.277-1.049a5.42 5.42 0 0 0-.031-.61 1.915 1.915 0 0 0-.114-.458.66.66 0 0 0-.245-.318.728.728 0 0 0-.41-.108c-.31 0-.525.128-.642.382-.118.25-.177.627-.177 1.131l-.019-.013zm2.614 1.583h-.963v-.835c-.089.29-.227.512-.416.664a1.06 1.06 0 0 1-.687.228c-.705 0-1.058-.536-1.058-1.608 0-.595.095-1.026.284-1.291.188-.266.545-.4 1.07-.4.521 0 .876.128 1.065.38.189.254.283.655.283 1.203v1.304l.422.355zM31.742 33.125c.18-.621.559-.931 1.134-.931.16 0 .302.03.428.089.122.059.22.139.296.24.08.106.141.234.183.386.046.16.078.327.095.5a5.6 5.6 0 0 1 .025.614v1.393h-.53v-1.228a16.967 16.967 0 0 0-.012-.62 4.452 4.452 0 0 0-.05-.488 1.332 1.332 0 0 0-.107-.373.523.523 0 0 0-.492-.298c-.285 0-.516.135-.693.405-.172.27-.262.631-.27 1.083v1.506h-.53V32.58l-.434-.342h.964l-.007.887zM35.721 33.808c0 .504.06.881.177 1.132.118.254.333.381.645.381a.735.735 0 0 0 .411-.108.663.663 0 0 0 .247-.318c.055-.14.093-.293.114-.458.008-.085.016-.177.022-.276.006-.1.01-.211.01-.334 0-.453-.091-.803-.273-1.05-.185-.25-.415-.374-.689-.374-.215 0-.38.102-.493.305-.11.2-.169.57-.177 1.113l.006-.013zm2.16.089c0 .548-.094.95-.283 1.202-.189.254-.544.38-1.064.38-.521 0-.876-.133-1.065-.399-.189-.265-.283-.696-.283-1.291 0-1.072.352-1.608 1.058-1.608.269 0 .497.076.686.228.19.152.328.374.416.665v-2.076l-.434-.342h.964v3.228l.005.013zM40.744 32.127h.416v-.696l.523-.127v.823h.938l-.063.159h-.875v1.83c0 .438.063.73.189.873.126.143.34.215.642.215a.447.447 0 0 0 .095-.006l-.026.164h-.069c-.57 0-.941-.092-1.111-.278-.166-.182-.25-.574-.25-1.178v-1.62h-.415l.006-.159zM44.868 33.109c.118-.697.445-1.045.983-1.045.214 0 .378.06.491.177l-.139.298a.75.75 0 0 0-.503-.184c-.555 0-.832.585-.832 1.754v1.184h-.53v-2.824l-.434-.342h.964v.982zM48.136 33.723c.008.542.067.913.176 1.112.114.204.277.306.491.306.278 0 .509-.125.693-.375.185-.25.277-.6.277-1.05a5.42 5.42 0 0 0-.031-.61 1.922 1.922 0 0 0-.113-.458.659.659 0 0 0-.246-.318.728.728 0 0 0-.41-.108c-.31 0-.524.128-.642.382-.118.25-.176.627-.176 1.131l-.02-.012zm2.614 1.582h-.964v-.835c-.088.291-.227.512-.416.664a1.061 1.061 0 0 1-.686.228c-.706 0-1.059-.536-1.059-1.608 0-.595.095-1.025.284-1.29.19-.267.546-.4 1.07-.4.521 0 .876.127 1.065.38.19.253.284.654.284 1.203v1.304l.422.354zM52.99 33.014c.18-.62.559-.931 1.134-.931.16 0 .302.03.429.089.121.06.22.14.295.24.08.106.141.235.183.387.046.16.078.327.095.5.008.088.014.183.019.284.004.102.006.212.006.33v1.393h-.53v-1.229a15.139 15.139 0 0 0-.012-.62 4.735 4.735 0 0 0-.05-.488 1.33 1.33 0 0 0-.107-.373.522.522 0 0 0-.491-.298c-.286 0-.517.136-.693.405-.173.27-.263.631-.271 1.083v1.507h-.53v-2.824l-.434-.342h.964l-.007.887zM58.676 32.703c-.046-.147-.155-.261-.327-.342a1.347 1.347 0 0 0-.573-.12c-.429 0-.643.174-.643.52 0 .147.044.261.133.341.088.08.27.182.543.304.439.199.719.346.841.443a.8.8 0 0 1 .335.659c0 .582-.44.873-1.32.873-.261 0-.507-.06-.739-.183a1.078 1.078 0 0 1-.492-.526l.17-.082a.78.78 0 0 0 .416.475c.206.105.426.158.661.158.265 0 .46-.063.586-.19a.63.63 0 0 0 .17-.597 1.461 1.461 0 0 0-.038-.114.285.285 0 0 0-.076-.095 1.156 1.156 0 0 1-.088-.076.41.41 0 0 0-.126-.07 5.116 5.116 0 0 1-.138-.057.822.822 0 0 0-.066-.028 5.98 5.98 0 0 1-.104-.042 1.423 1.423 0 0 1-.183-.076c-.323-.135-.567-.275-.73-.418a.738.738 0 0 1-.246-.584c0-.258.094-.457.283-.596.19-.14.462-.21.819-.21.29 0 .53.047.718.14.197.097.33.226.397.386l-.183.107zM62.845 33.735c0-.502-.06-.877-.177-1.126-.122-.254-.336-.38-.642-.38a.744.744 0 0 0-.41.101.652.652 0 0 0-.245.311c-.06.14-.097.292-.114.457a5.499 5.499 0 0 0-.031.609c0 .448.092.797.277 1.047.184.25.415.374.693.374.214 0 .378-.102.49-.305.11-.2.169-.57.177-1.113l-.018.025zm-1.613 3.127h-.964l.435-.341v-2.887c0-.549.095-.95.283-1.203.19-.253.544-.38 1.065-.38.525 0 .882.134 1.07.4.19.265.284.696.284 1.29 0 1.073-.353 1.609-1.058 1.609a1.06 1.06 0 0 1-.687-.228c-.189-.152-.327-.374-.415-.665l-.013 2.405zM65.217 33.71c0 .481.067.85.202 1.108.13.253.367.38.712.38.344 0 .583-.127.718-.38.134-.257.201-.627.201-1.108 0-.481-.067-.85-.201-1.108-.135-.253-.374-.38-.718-.38-.345 0-.582.127-.712.38-.135.257-.202.627-.202 1.108m.923 1.646c-.551 0-.932-.13-1.143-.393-.206-.257-.309-.675-.309-1.253 0-.574.101-.991.303-1.254.202-.261.585-.392 1.149-.392.556 0 .934.13 1.137.392.201.263.302.68.302 1.254 0 .578-.1.996-.302 1.253-.203.262-.581.393-1.137.393M69.826 33.109c.118-.697.445-1.045.983-1.045.214 0 .378.06.491.177l-.138.298a.75.75 0 0 0-.504-.184c-.555 0-.832.585-.832 1.754v1.184h-.53v-2.824l-.434-.342h.964v.982zM72.59 32.127h.416v-.696l.522-.127v.823h.939l-.063.159h-.876v1.83c0 .438.063.73.19.873.125.143.34.215.642.215a.444.444 0 0 0 .094-.006l-.025.164h-.07c-.57 0-.94-.092-1.11-.278-.167-.182-.25-.574-.25-1.178v-1.62h-.416l.007-.159z" fill="#273566"/>
        <path d="M9.89 14.66H6.88V1.406h3.01c4.642 0 6.964 2.334 6.964 7 0 2.181-.55 3.769-1.649 4.763-1.126.994-2.898 1.49-5.316 1.49zm6.47 4.1c-.303-.524-.55-.938-.742-1.242-.22-.304-.605-.635-1.154-.994a5.684 5.684 0 0 0-1.978-.746c3.022-.249 5.137-.952 6.346-2.112 1.181-1.16 1.772-2.9 1.772-5.219 0-2.899-.783-5.039-2.349-6.42-1.594-1.38-4.382-2.07-8.366-2.07H.087L.246.04l3.008 2.318v26.674h3.627v-12.84h1.937c1.483 0 2.705.87 3.668 2.61l5.564 10.23h4.244L16.36 18.76z" fill="#E1742B"/>
    </g>
</svg>
