<svg width="180" height="62" viewBox="0 0 180 62" xmlns="http://www.w3.org/2000/svg">
    <g fill="#FFF" fill-rule="evenodd">
        <path d="M130.4 24.539c-.06.062-.115.124-.174.186v.095c.059-.094.113-.187.174-.281M132.231 38.475h-2.005v2.401c4.565 4.877 13.573 7.238 21.265 7.742 6.313.41 12.824.05 19.421-.899l-1.203-1.409c-17.38 1.548-32.248-1.07-37.478-7.835"/>
        <path d="M147.124 38.475H136.86c6.028 4.55 17.437 6.186 30.805 5.44l-3.39-3.971c-6.432.234-12.288-.194-17.15-1.47M147.137 53.47c-6.511-.492-12.627-2.517-16.91-5.687v10.38h49.6l-5.995-7.023c-9.289 2.03-18.34 2.979-26.695 2.33"/>
        <path d="M146.637 10.123a.591.591 0 0 1 .428-.17h.674c.22.004.43.095.587.244a.487.487 0 0 1 .054.062l3.044 3.658c.162-.022.326-.045.496-.065 1.825-.224 4.032-.375 6.402-.435v-2.471c0-.045-.017-.153-.026-.184l-1.91-6.756a.593.593 0 0 1 .576-.764h1.448a.772.772 0 0 1 .661.395l1.443 2.678h1.003a.62.62 0 0 1 .452.186c.122.122.19.287.19.454l-.002.736a.634.634 0 0 1-.561.635l.203.376h1.093a.647.647 0 0 1 .644.644l-.002.733a.638.638 0 0 1-.19.454.638.638 0 0 1-.447.187h-.011l1.416 2.633c.404-.008.786-.02 1.152-.027 2.145-.057 3.696-.098 5.017.092 1.631.235 3.019.79 3.71 1.48.225.225.357.444.402.674.005.013.02.074.021.16a.61.61 0 0 1-.022.176c-.045.216-.175.437-.398.662-.696.692-2.083 1.246-3.715 1.481-1.314.19-2.86.15-5 .092-.37-.01-.757-.017-1.167-.028l-1.417 2.633.007.001a.648.648 0 0 1 .643.644v.733a.648.648 0 0 1-.64.641h-1.095l-.204.375a.643.643 0 0 1 .563.636v.738a.645.645 0 0 1-.642.64h-1.003l-1.444 2.678a.775.775 0 0 1-.65.393l-1.458-.001a.596.596 0 0 1-.575-.771l1.907-6.743a.911.911 0 0 0 .026-.186v-2.473c-2.365-.063-4.572-.21-6.4-.434-.17-.023-.334-.043-.495-.067l-3.057 3.67a.864.864 0 0 1-.617.292l-.693.002a.596.596 0 0 1-.424-.172l-.003-.002a.589.589 0 0 1-.127-.624l.4-1.124.834-2.347a.782.782 0 0 0 .025-.15V16.7a2.077 2.077 0 0 1-.543-.356.844.844 0 0 1-.269-.596l-.001-.004-.001-.016a.854.854 0 0 1 .27-.6c.132-.129.313-.248.545-.358l-.001-.39a.76.76 0 0 0-.024-.155l-1.237-3.48a.58.58 0 0 1 .135-.622m-12.863 13.08c-2.92 6.864-1.41 11.878 3.085 15.272h10.265c-5.43-1.424-9.621-3.905-11.968-7.725-3.1-6.64 3.597-13.308 8.132-15.391.773-.356 1.485-.582 2.073-.647-.635.322-1.21.67-1.74 1.036-4.202 2.895-5.147 7.045-3.294 10.914 2.917 6.022 10.552 8.712 20.505 9.249 3.651.197 7.615.104 11.773-.22 4.356-2.94 7.222-7.925 7.222-13.58v-5.69c0-9.037-7.318-16.363-16.346-16.363h-33.255v24.667c.059-.062.114-.124.174-.186-.06.094-.116.187-.174.281v13.655h2.005c-2.93-3.79-2.835-8.881 1.543-15.272M41.662.274h11.23v30.26c0 6.2.902 10.503 2.705 12.908 1.802 2.408 4.853 3.61 9.151 3.61 4.252 0 7.28-1.18 9.082-3.54 1.802-2.36 2.703-6.639 2.703-12.84V.205h2.705v29.843c0 3.61-.209 6.524-.625 8.745-.416 2.175-1.178 4.141-2.287 5.9-1.11 1.711-2.704 2.914-4.784 3.608-2.08.693-4.807 1.04-8.18 1.04-6.472 0-10.84-1.456-13.104-4.371-2.265-2.869-3.397-7.888-3.397-15.06V3.813l-.069.138-5.13-3.678zM87.695.066h8.944l25.929 39.49V.066h2.703v48.582h-3.952L95.461 9.504v39.144h-2.705V3.952zM5.048 54.02h.7v-1.166l.88-.212v1.378h1.578l-.106.266H6.628v3.066c0 .735.106 1.223.318 1.463.211.24.571.36 1.08.36.078 0 .13-.002.16-.01l-.044.276h-.116c-.96 0-1.583-.155-1.87-.467-.279-.303-.418-.961-.418-1.972v-2.716h-.7l.01-.266zM11.986 55.665c.198-1.167.749-1.75 1.652-1.75.36 0 .637.099.827.296l-.232.5a1.264 1.264 0 0 0-.848-.308c-.933 0-1.399.979-1.399 2.938v1.984h-.89v-4.732l-.731-.573h1.621v1.645zM17.483 56.694c.014.91.113 1.53.297 1.864.19.342.466.512.826.512.467 0 .855-.21 1.166-.629.31-.418.465-1.005.465-1.757a9.046 9.046 0 0 0-.052-1.023 3.2 3.2 0 0 0-.19-.767c-.1-.242-.238-.42-.414-.533-.184-.12-.413-.181-.689-.181-.523 0-.883.214-1.08.639-.199.419-.297 1.051-.297 1.896l-.032-.021zm4.397 2.652H20.26v-1.4c-.149.488-.381.859-.7 1.113-.317.255-.702.382-1.154.382-1.187 0-1.78-.898-1.78-2.694 0-.998.158-1.719.476-2.164.318-.446.918-.668 1.801-.668.877 0 1.474.212 1.791.636.318.425.477 1.096.477 2.015v2.185l.71.595zM26.434 59.325l-1.663-4.732-.732-.573h1.441l1.696 4.774 1.727-4.774h.318l-1.928 5.305zM33.594 54.18c-.861 0-1.296.782-1.303 2.344h2.638c-.014-.753-.12-1.33-.318-1.732-.204-.401-.543-.601-1.017-.601v-.011zm2.077 4.073c-.198.41-.434.71-.71.902-.275.183-.699.275-1.271.275a3.08 3.08 0 0 1-.858-.105 2.495 2.495 0 0 1-.615-.255 1.316 1.316 0 0 1-.414-.403 2.206 2.206 0 0 1-.254-.467 2.098 2.098 0 0 1-.127-.54 7.118 7.118 0 0 1-.032-.298 2.671 2.671 0 0 1-.01-.212v-.498c0-.934.159-1.624.477-2.069.318-.446.89-.668 1.716-.668.381 0 .7.046.954.137.26.1.473.227.636.382.162.163.29.369.38.616.093.254.156.516.192.784a8.072 8.072 0 0 1 .052.954H32.26c.007.819.124 1.418.35 1.802.219.384.629.575 1.23.575.388 0 .705-.085.953-.254.24-.17.434-.435.583-.796l.296.138zM39.567 59.325h-.89V51.94l-.731-.573h1.621zM45.231 56.694c.014.91.113 1.53.297 1.864.19.342.466.512.826.512.467 0 .855-.21 1.166-.629.31-.418.466-1.005.466-1.757a9.045 9.045 0 0 0-.053-1.023 3.2 3.2 0 0 0-.19-.767c-.1-.242-.237-.42-.414-.533-.183-.12-.413-.181-.689-.181-.523 0-.883.214-1.08.639-.198.419-.297 1.051-.297 1.896l-.032-.021zm4.398 2.652h-1.622v-1.4c-.148.488-.381.859-.699 1.113-.318.255-.703.382-1.155.382-1.187 0-1.78-.898-1.78-2.694 0-.998.159-1.719.477-2.164.317-.446.918-.668 1.8-.668.877 0 1.474.212 1.792.636.318.425.477 1.096.477 2.015v2.185l.71.595zM53.398 55.506c.304-1.04.94-1.56 1.908-1.56.268 0 .508.05.72.15.205.098.37.233.498.402.134.177.237.393.308.647.077.27.13.548.158.838.015.148.025.308.032.477.007.17.01.354.01.552v2.334h-.89v-2.058c0-.205-.001-.394-.005-.568-.004-.173-.009-.33-.016-.472a7.43 7.43 0 0 0-.085-.816 2.225 2.225 0 0 0-.18-.627.976.976 0 0 0-.317-.36.883.883 0 0 0-.51-.138c-.48 0-.868.227-1.164.679-.29.453-.442 1.057-.456 1.814v2.525h-.89v-4.732l-.732-.573h1.622l-.011 1.486zM60.092 56.651c0 .845.099 1.477.297 1.896.2.427.56.64 1.086.64.276 0 .506-.06.691-.181.177-.114.315-.291.415-.533.092-.234.156-.49.191-.768.014-.141.027-.296.037-.462a8.35 8.35 0 0 0 .017-.56c0-.76-.153-1.346-.458-1.758-.312-.42-.699-.629-1.16-.629-.36 0-.638.172-.83.512-.184.334-.283.955-.297 1.865l.01-.022zm3.634.15c0 .918-.16 1.59-.477 2.014-.317.425-.914.637-1.79.637-.877 0-1.473-.223-1.791-.669-.318-.445-.477-1.166-.477-2.164 0-1.796.593-2.694 1.78-2.694.452 0 .837.128 1.155.382.318.255.55.626.7 1.114v-3.479l-.732-.573h1.622v5.41l.01.021zM68.542 53.835h.7v-1.167l.878-.212v1.379h1.58l-.107.266H70.12v3.065c0 .735.106 1.223.318 1.463.212.241.573.361 1.081.361.078 0 .13-.003.16-.01l-.043.276h-.117c-.96 0-1.584-.156-1.87-.467-.28-.304-.418-.962-.418-1.973v-2.715h-.7l.01-.266zM75.48 55.48c.197-1.168.748-1.75 1.652-1.75.36 0 .636.098.827.296l-.234.5a1.264 1.264 0 0 0-.847-.309c-.933 0-1.399.98-1.399 2.938v1.984h-.89v-4.731l-.731-.573h1.621v1.645zM80.976 56.508c.014.91.113 1.531.296 1.865.192.341.467.511.827.511.467 0 .855-.209 1.166-.628.31-.419.466-1.006.466-1.758a9.046 9.046 0 0 0-.053-1.023 3.21 3.21 0 0 0-.19-.767c-.1-.242-.237-.42-.414-.533-.184-.12-.413-.18-.689-.18-.523 0-.883.213-1.08.639-.199.418-.297 1.05-.297 1.896l-.032-.022zm4.398 2.652h-1.622v-1.4c-.149.488-.381.86-.699 1.114-.318.255-.703.382-1.155.382-1.187 0-1.78-.898-1.78-2.695 0-.997.158-1.718.476-2.163.319-.446.919-.669 1.802-.669.876 0 1.473.213 1.79.637.319.424.477 1.096.477 2.015v2.185l.71.594zM89.142 55.32c.304-1.04.94-1.56 1.908-1.56.269 0 .508.05.72.15.205.099.371.233.498.403.134.177.237.392.308.647.077.268.13.548.159.838.014.148.024.307.032.476.006.17.01.355.01.552v2.335h-.89v-2.058a25.268 25.268 0 0 0-.021-1.04 7.904 7.904 0 0 0-.085-.817 2.222 2.222 0 0 0-.18-.626.974.974 0 0 0-.318-.36.88.88 0 0 0-.509-.139c-.48 0-.868.227-1.165.68-.29.452-.442 1.057-.456 1.814v2.524h-.89v-4.731l-.73-.573h1.62l-.01 1.485zM98.708 54.8c-.078-.247-.262-.438-.55-.573a2.274 2.274 0 0 0-.965-.2c-.721 0-1.081.29-1.081.869 0 .248.074.439.223.573.149.134.454.304.914.509.738.332 1.209.58 1.415.743.375.29.563.657.563 1.103 0 .976-.74 1.464-2.22 1.464-.44 0-.854-.103-1.243-.308a1.809 1.809 0 0 1-.828-.88l.286-.138c.113.354.345.619.699.795.346.177.717.265 1.112.265.446 0 .774-.106.986-.319.212-.212.318-.47.318-.775a.845.845 0 0 0-.032-.224 2.442 2.442 0 0 0-.064-.19.479.479 0 0 0-.127-.16 1.943 1.943 0 0 1-.148-.128.69.69 0 0 0-.212-.117 8.626 8.626 0 0 1-.138-.053 1.116 1.116 0 0 1-.095-.043 1.385 1.385 0 0 0-.111-.047c-.046-.018-.104-.04-.175-.07a2.399 2.399 0 0 1-.307-.127c-.544-.227-.954-.461-1.23-.701-.275-.241-.412-.568-.412-.978 0-.432.158-.766.476-1 .318-.233.777-.35 1.377-.35.488 0 .89.078 1.209.233.331.163.554.379.667.647l-.307.18zM105.72 56.53c0-.842-.1-1.471-.297-1.888-.205-.425-.565-.637-1.08-.637-.283 0-.513.056-.69.17a1.094 1.094 0 0 0-.413.521 2.647 2.647 0 0 0-.19.765 9.178 9.178 0 0 0-.052 1.02c-.001.752.154 1.337.465 1.755.31.418.699.627 1.165.627.36 0 .636-.17.827-.511.183-.334.282-.956.297-1.865l-.032.042zm-2.713 5.24h-1.621l.731-.573V56.36c0-.92.16-1.591.477-2.015.318-.425.915-.637 1.79-.637.884 0 1.484.223 1.802.668.318.446.476 1.167.476 2.164 0 1.796-.592 2.694-1.779 2.694-.453 0-.837-.127-1.155-.381-.318-.255-.551-.627-.7-1.114l-.021 4.03zM109.711 56.487c0 .806.113 1.425.34 1.857.218.424.617.636 1.197.636.579 0 .981-.212 1.208-.636.226-.432.339-1.05.339-1.857 0-.806-.113-1.425-.34-1.856-.226-.425-.628-.636-1.207-.636-.58 0-.979.211-1.197.636-.227.43-.34 1.05-.34 1.856m1.553 2.758c-.928 0-1.568-.22-1.923-.658-.346-.43-.52-1.131-.52-2.1 0-.962.17-1.661.51-2.1.34-.439.984-.658 1.933-.658.934 0 1.572.22 1.912.657.338.44.509 1.139.509 2.101 0 .969-.17 1.67-.51 2.1-.34.439-.977.658-1.911.658M117.465 55.48c.198-1.168.748-1.75 1.652-1.75.36 0 .636.098.827.296l-.233.5a1.264 1.264 0 0 0-.847-.309c-.933 0-1.4.98-1.4 2.938v1.984h-.89v-4.731l-.73-.573h1.62v1.645zM122.113 53.835h.7v-1.167l.88-.212v1.379h1.578l-.106.266h-1.472v3.065c0 .735.105 1.223.318 1.463.211.241.572.361 1.08.361.078 0 .13-.003.16-.01l-.043.276h-.117c-.96 0-1.583-.156-1.87-.467-.28-.304-.418-.962-.418-1.973v-2.715h-.7l.01-.266zM16.636 24.565h-5.06V2.356h5.06c7.81 0 11.717 3.91 11.717 11.73 0 3.655-.926 6.315-2.774 7.98-1.895 1.666-4.876 2.499-8.943 2.499zm10.885 6.871a65.1 65.1 0 0 0-1.248-2.082c-.37-.509-1.018-1.064-1.942-1.666-.97-.6-2.08-1.017-3.327-1.25 5.084-.416 8.642-1.595 10.677-3.539 1.986-1.943 2.98-4.858 2.98-8.745 0-4.857-1.317-8.443-3.951-10.757-2.681-2.313-7.372-3.47-14.074-3.47H.147l.266.14 5.061 3.885v44.696h6.101V27.133h3.259c2.495 0 4.551 1.458 6.17 4.372l9.36 17.143h7.14l-9.983-17.212z"/>
    </g>
</svg>
