<svg width="1008" height="827" viewBox="0 0 1008 827" xmlns="http://www.w3.org/2000/svg">
    <defs>
        <filter x="-1.8%" y="-2.2%" width="103.7%" height="104.5%" filterUnits="objectBoundingBox" id="a">
            <feOffset dy="9" in="SourceAlpha" result="shadowOffsetOuter1"/>
            <feColorMatrix values="0 0 0 0 0.674535779 0 0 0 0 0.327580782 0 0 0 0 0.0950879515 0 0 0 1 0" in="shadowOffsetOuter1" result="shadowMatrixOuter1"/>
            <feMerge>
                <feMergeNode in="shadowMatrixOuter1"/>
                <feMergeNode in="SourceGraphic"/>
            </feMerge>
        </filter>
    </defs>
    <g filter="url(#a)" transform="translate(14 14.161)" fill="#E1742C" fill-rule="nonzero">
        <path stroke="#AC5418" stroke-width=".75" d="m35.714 196.095-2.172-2.751-1.037-3.492.566-3.118 2.643-1.986 6.898 1.702 1.986 6.519-2.554 5.294zM77.765 208.373l-1.798 2.461-4.065-.573-1.696-5.294.564-.566.661-.377.659-.09.664.09zM121.885 204.026l-3.305 4.529-1.89 6.812-2.556-.66-2.17-2.365 1.509-7.373-1.037-5.381-4.816.564-1.61.752-.376-1.702-.38-7.937-1.225-7.75-.568-3.11v-3.312l1.04-1.416 1.042-1.702-.477-1.802-.657-1.886 4.526-14.456-.75-5.574-.376-2.829-.566-.196-19.75-2.263-4.064-1.892-7.086-4.82-7.558-1.698-3.398-2.088-8.127-7.84-.663-1.515-.09-1.606 26.356-21.544 5.577-1.886 5.764.28 11.62 5.955 2.742.467 3.497-.28 5.76-1.706 2.55.468 2.554 2.844 5.671 5.293 25.132 9.638 11.337 2.266 4.06 1.607.19 1.422-2.455 1.316-4.067 1.424-3.87 4.724 4.255 6.517 7.178 6.142 3.4 2.086-5.291 2.923-6.802 3.304-4.721 4.065-3.31 5.578-9.922-.19-5.384 4.062 2.077 6.615 2.271 6.614-1.985 7.942-5.197 5.481-5.382 1.602-5.103 1.422zM205.782 360.137l-9.825 3.781-1.508 8.22-1.327.376-3.495-.184-7.368-8.033 1.51-4.16.096-3.4 1.696-2.554 1.234-4.722.19-5.578 1.889-4.529-1.513-4.544-2.36-3.775-2.077-3.969 3.118-14.648 12.37-7.657 7.092-9.35 6.898-9.928 6.798-5.765 8.412 4.536 6.425 4.162 6.234 4.724 4.82 2.927 4.064 3.302-5.76 8.785-6.242 9.46 4.441 6.997 5.96 5.097 5.762 4.347-.095 6.804-8.036 8.882-4.155 12.098-12.187 1.23-12.097-.951-10.962-1.984v.003zM262.097 272.542l2.93-4.161 4.254-2.365 7.177.945.944 7.936-6.708 9.64-8.504-.28.097-2.934.848-2.83-.564-3.217z"/>
        <path stroke="#AC5418" stroke-width=".75" d="m274.667 340.204-5.198 12.943-.188 15.878-14.648-2.18-13.607-5.004 4.155-12.098 8.036-8.882.095-6.804-5.763-4.347-5.959-5.097-4.44-6.996 6.24-9.461 5.761-8.785-4.064-3.302-4.82-2.927-6.234-4.724-6.424-4.162 6.424-4.536 7.082-1.699 5.675.19 4.724-3.495.946-3.97.468-4.064 1.423-3.304 1.412-3.317.38-4.44.758-4.343 2.453-4.822 2.834-4.626 5.197 11.245 1.894 12.943-4.253 2.364-2.93 4.162.473 2.734.564 3.217-.848 2.83-.097 2.933 8.504.28 6.709-9.639 9.26 3.314 9.257-1.892 4.821 10.96-.38 13.61 2.65 3.024-1.14 4.06-3.774 4.64-3.968 4.441-6.423 5.955-5.67 6.791-3.409 5.485z"/>
        <path stroke="#AC5418" stroke-width=".75" d="m322.755 348.891-9.635 3.785-6.047 7.931-18.33 11.44-19.46-3.024.188-15.878 5.198-12.943 3.962-4.92 3.41-5.485 5.669-6.792 6.423-5.954 3.967-4.442 3.775-4.639 1.14-4.061-2.65-3.024.38-13.609-4.821-10.96 3.123-10.488 6.993-6.524 3.114-3.211-.848-4.722 1.418-3.223 3.49-2.075 8.98-8.32 8.784-8.782 7.56-8.886 7.844-8.69-1.606 9.067.568 8.982.57 9.73-1.512 9.17-3.022 8.881 4.06 6.712 6.99 1.041 5.863 3.965-4.349 6.994-5.385 7.367 3.12 5.013 6.992-4.254 5.952.568 4.535 5.006-.282 9.73.945 9.929 5.007 1.605 5.386-.757 1.417 2.086-.664 3.493-1.891 4.912-4.06 1.795-4.156 3.972-3.875 3.872-3.5 2.175-3.4 2.547-3.498 2.647-3.78 2.275-6.514.186-6.52-.28-8.6 3.872z"/>
        <path stroke="#AC5418" stroke-width=".75" d="m203.516 471.176-6.705 4.913-3.307 2.643-3.875-1.982-7.845-7.937-9.16-18.903-3.688-4.249-4.815-2.359-18.141-1.895-5.579-2.458-.568-5.473 11.06-7.19 28.72 4.82 12.096-1.222 2.363-1.988 1.228-2.46 2.079-10.481.564-1.802 3.877-3.4 3.305-4.443 2.17-5.574 3.21-14.743.099-1.322-.099-1.321-.377-1.325-4.439-5.959-2.55-2.45-2.553-1.323-3.777.193-2.36.655 1.508-8.219 9.825-3.78 10.962 1.98 12.097.95 12.187-1.229 13.607 5.004 14.648 2.18 19.46 3.023 18.33-11.44-.658 3.973-1.23 3.785-1.703 1.414-1.701 1.604-.849 8.315 1.893 8.126 1.602 7.56 2.272 6.239 3.967-1.322 3.877-3.027 10.395 1.047 8.783 8.314 4.445 3.584 2.173 4.633 2.264 5.108 4.06 4.624-6.045.473-5.007 2.934-7.179 1.318-6.427 3.308-3.778 5.763-5.48 3.211-4.725-3.495-5.291-2.64-4.82 3.017-5.385 3.213-7.37 3.215-7.368 2.741-7.751 1.226-7.56 3.305-12.186 4.255-12.66 1.789-6.14 1.9-5.955.754-4.349-4.922-4.532-3.683-3.5 5.574-3.208 7.56zM396.736 260.626l-14.075 5.767-8.225-9.73 5.483-2.933 6.523 2.463 3.494-1.234 3.304.096 1.889 2.458zM105.254 191.265l.38 7.937.377 1.702-8.123 4.065-4.065-.657-7.65-3.124-8.22-.941-2.834-2.363-2.743-2.936-3.497-2.17-5.764-5.864-2.834-1.605-.473 4.163-1.132 2.74-3.304-.377-3.778-2.458-2.27-3.877 1.89-7.276 17.198.66 5.951-4.341-.19-3.595-2.269-3.212-9.164-7.088-2.932-1.04H48.38l-2.933-1.23-1.037-2.835 1.793-4.818-6.42-13.606 16.723-13.61.091 1.605.663 1.514 8.127 7.84 3.398 2.089 7.558 1.698 7.086 4.82 4.064 1.892 19.75 2.263.566.196.377 2.83.75 5.573-4.527 14.456.657 1.886.477 1.802-1.041 1.702-1.041 1.416v3.312l.568 3.11zM241.119 278.021l-7.082 1.699-6.425 4.536-8.412-4.536-6.798 5.765-6.898 9.928-7.091 9.35-1.127-2.547 1.127-2.65-.468-5.48.664-5.008-3.971-7.088-6.614-6.242-7.372-6.14-5.482-9.073-1.13-4.719-2.171-3.784-3.215-3.778-3.21-4.256-.095-7.088 3.025-5.482 5.291-3.402 4.822-4.254 5.76-4.062 5.67-4.161 3.305-6.896 2.646-6.335 8.316-1.698 8.693 1.132 8.88 1.038 8.504-1.98 1.23-3.212 1.603-3.4 1.891-2.558 1.892-2.547 7.18-7.56 5.478-9.167 7.372 9.731 7.085 9.83 3.968 7.748-.854 8.034-2.64 4.445-1.328 5.381-.848 4.156-1.414 3.972-1.703 8.134 3.02 8.03-2.833 4.625-2.453 4.822-.758 4.344-.38 4.44-1.412 3.316-1.424 3.304-.467 4.064-.947 3.97-4.723 3.495z"/>
        <path stroke="#AC5418" stroke-width=".75" d="m239.705 167.644-9.636-5.387-1.037-.66 4.44-2.835 3.869-.941h13.139l3.116 1.032 2.83 2.743 5.013 6.239 10.296 9.258 3.593 2.08 10.394 3.405 2.93 2.45 4.818 6.525 3.116 1.886 3.779-.097 1.605-2.456.948-3.591 1.982-3.685 3.684-2.262 3.402.376 3.31.852 3.4-.57 2.458-3.309 5.194 3.972 7.937.284 6.895 4.061.755 6.423 1.038 6.613 2.553 5.298.852 6.045-7.845 8.69-7.558 8.886-8.784 8.781-8.98 8.321-3.491 2.076-1.418 3.222.848 4.722-3.114 3.211-6.993 6.524-3.123 10.488-9.257 1.891-9.26-3.313-.945-7.937-7.177-.945-1.895-12.943-5.196-11.244-3.021-8.034 1.703-8.13 1.415-3.972.848-4.156 1.327-5.38 2.64-4.446.854-8.034-3.968-7.747-7.085-9.83-7.372-9.736z"/>
        <path stroke="#AC5418" stroke-width=".75" d="m124.909 271.126-.945-7.47-1.134-2.55 13.416-6.528 4.632-5.188 3.303-9.362-.376-5.097-3.023-1.61-4.067-.289-3.589-1.129-2.739-2.83-7.462-9.548-4.632-3.688-1.604-.468 1.891-6.812 3.305-4.53 3.12-4.062 5.104-1.422 5.382-1.602 5.196-5.481 1.986-7.943-2.272-6.613-2.077-6.615 5.384-4.062 9.921.19 3.311-5.578 4.722-4.065 6.801-3.304 5.291-2.923 8.695 5.286 25.889 9.262 8.503 1.041 4.155-.376 3.5-1.33 4.536-2.83 1.037.66 9.636 5.387 9.826 4.72-5.478 9.17-7.18 7.56-1.891 2.547-1.891 2.557-1.604 3.4-1.23 3.212-8.504 1.98-8.88-1.037-8.692-1.132-8.316 1.698-2.647 6.335-3.305 6.896-5.67 4.161-5.76 4.061-4.822 4.255-5.29 3.402-3.026 5.481.095 7.089-2.266 10.014.757 10.02.091 9.928-.848 10.675-1.321 6.992-4.256 4.532-4.346-2.075-4.157-3.404-4.06-2.647.467-6.23-3.584-4.92-5.393-2.262-6.514-.1zM420.83 246.077l13.325 5.765-2.457 9.355-2.459 9.166-2.266 7.656-.19 8.316 2.267 6.896-1.795 7.08-2.743 3.221-1.225 1.413-4.815 2.832-6.05 13.331-10.206 1.604-10.866 1.61-8.412 12.846-3.11-3.49-2.647-3.885-.857-3.864-1.318-3.501 4.06-1.795 1.892-4.911.664-3.494-1.418-2.086-5.385.757-5.004-1.605-.948-9.929.282-9.73-4.536-5.006-5.951-.568-6.993 4.255-3.12-5.014 5.386-7.367 4.348-6.994-5.862-3.965-6.99-1.041-4.06-6.712 3.021-8.881 1.513-9.17-.57-9.73-.568-8.982 1.606-9.067 14.93 4.533 14.74 8.03 15.87 8.037 15.59 8.696 13.327 5.388-38.167 20.314 14.075-5.767-1.607-3.111-1.89-2.467-3.303-.087-3.494 1.234-6.524-2.463-5.482 2.933 8.225 9.73zM977.428 369.401l1.512 4.346.863 4.725-.579 3.119-3.305-6.526-3.675-5.664-4.26-5.006-8.693-7.09-3.688-1.98-3.968-1.513-7.748-1.04-6.517-2.173-3.493-.477-1.984.193-2.36 1.037-1.602.474h-6.714l-3.124 1.325-5.85 4.911h-3.501l-1.23-1.13-2.263-3.592-1.418-1.513-1.798-.753-4.528-.756-4.544-2.55-3.394 1.98-5.86 5.203 1.228 5.376-4.912 5.11-7.09 3.69-11.615 2.643-10.113 5.862-13.421 5.002-3.118 2.27-6.705 7.467-3.027 2.08-1.891 2.453-.377 5.01.945 6.142.095 2.455-9.35 3.683-1.798 3.597.477 4.537 2.358 4.625 1.61 1.8 2.449 1.888 1.33 1.702.756 2.356-.945 1.516-1.798 1.136-3.027 2.833-1.414.659-1.229.944-1.32 2.367-.758 2.74-.097 2.077.854 4.532 2.077 4.921.566 2.64-.854 2.646-1.505 1.699-1.33 1.141-.942 1.326-.376 2.17.28 1.225.659 1.23.377 1.413-.093 1.618-.752.941-2.837 2.166-1.134 3.219.098 1.418 1.037 1.606-.753 3.02.946 3.124 3.968 5.574-.19 1.891-2.46 1.886-4.532 2.554-4.344 5.39-1.698-6.905-.76-7.65-.376-9.83 2.453-8.884-.087-5.858-.76-5.766-2.458-3.58-2.552-3.505-2.266-7.177-3.12-6.235 2.174-6.339 1.23-6.14 3.023-4.349 2.641-4.345-.471-4.628-.845-4.831 2.073-5 3.116-4.35 1.136-4.347-.19-3.783 1.324-3.871 2.934-2.928 5.094-9.923.763-12.757-1.61-12.66-.19-11.531 5.478-5.574 7.372-1.138 4.255-4.347 4.532-5.195 5.105 2.175 2.174 8.028 2.459 3.876 2.639 3.871 1.416 4.255 3.88.854 4.06-.377 3.876-1.895 2.078-2.263-1.89-3.31-3.688-8.03-5.572-4.537-3.123-1.226.856-1.796 5.2-.945 5.29-.193 4.065 1.136 3.782 1.223 4.155-1.318 4.152-1.986 8.032-1.795 7.933-2.073 3.315-3.692-6.147-2.454-7.37-2.457-7.28-2.18-3.303 1.05-3.12 1.412-3.964-.848-3.407-3.689 1.509-2.643 1.327-2.647.571-2.177 2.446 1.13 8.788 1.235 7.466 2.366 4.064.279 3.209-.665 9.734-3.974 4.155-.748 19.842.748 1.416 1.424.754 1.61.573 1.698.843 1.512 3.129 3.785 3.303 3.018 3.487 1.983 15.792 3.407 3.106 1.697 1.897 3.4 2.07 5.292 2.653 4.92 3.498 2.165 3.775 1.331 3.21 3.499 2.554 4.625 1.706 4.726 1.794 18.797z"/>
        <path stroke="#AC5418" stroke-width=".75" d="m839.866 307.885 8.88.85 8.786-3.03 3.407 3.689 3.964.848 3.12-1.412 3.303-1.049 7.279 2.18 7.371 2.457 6.147 2.453-3.315 3.692-7.934 2.074-8.032 1.795-4.151 1.986-4.155 1.317-3.782-1.223-4.065-1.136-5.29.193-5.2.945-.856 1.797 3.123 1.225 5.571 4.538 3.688 8.03 1.89 3.31-2.078 2.262-3.875 1.895-4.06.377-3.88-.854-1.417-4.254-2.639-3.872-2.459-3.876-2.173-8.027-5.105-2.176-4.532 5.195-4.256 4.348-7.371 1.137-5.478 5.574.189 11.53 1.61 12.662-.762 12.757-5.094 9.923-2.934 2.927-1.324 3.872.19 3.783-1.136 4.347-3.116 4.349-2.073 5 .844 4.832.472 4.627-2.641 4.345-3.023 4.35-1.23 6.14-2.174 6.338-3.21-4.636-3.495-4.156-1.514-3.874-.375-4.446-3.779-6.522-3.405-6.8-1.416-7.658-4.248-5.757-8.036-1.237-8.312.099-6.332-.568-6.043-1.795-5.103-6.716-4.916-7.365-5.006-5.665-5.48-5.106-4.725-5.203-1.603-8.505 5.953 2.46 5.674 3.872 3.297 2.173 3.12-3.495 3.78-3.972 3.875-3.874 4.913-5.097 5.951-1.99 3.493-3.59 2.652-5.1 5.007-2.834 5.477-1.045 5.294-2.36 5.01-4.063 4.81-4.816 3.596-6.709 12.854-.375 11.239-5.108.853-4.349.756-4.347 1.98-2.834 2.366-2.745 4.816-4.253 3.496-5.947 6.707 4.438 5.952 6.994 2.834 5.11 3.023 4.724h-.004zM348.934 430.446l-7.188 2.08-6.14-4.533 5.008-2.935 6.046-.473.854-8.217 2.455-6.15 4.536-4.728 1.321-7.838 9.444-4.247 10.961-5.39-1.037-3.685 1.23-2.929 2.264.845 1.891 1.802 4.35.849 3.964-1.703 3.311 4.158 1.6 5.86 4.634 1.424 4.91-.665 12.379-.94 12.473.28-7.178 7.276-8.224 5.384-.657 5.197 5.193 4.537-4.816 4.341-6.523 2.083-.284 6.239-.377 6.422-2.173 1.702-2.268 1.424 3.877 11.244 14.266 3.111 7.462-2.834 7.655-1.23 3.968 6.715-3.778 7.936-1.23 1.129-1.417.852-5.575-1.51-5.576.658-2.649 3.688-2.358 3.592-9.92-2.363-9.546-6.422-7.18-3.588-7.56 1.795-1.89 6.611-3.395 5.478-6.807 2.75-6.709 3.392 3.502-7.083 3.87-6.809 3.494-4.716 1.513-6.151-7.086-3.403-6.143-5.85-4.348-10.114zM429.237 270.365l2.46-9.166 2.456-9.355 7.182 1.515 7.179 1.793 4.344 1.895h4.256l1.414-.852 1.705-.757 3.116.944 3.12 1.51 6.614 1.512 6.895-1.325.564 10.02.473 10.023 4.252 4.527 5.67 3.313 2.837 3.404 2.45 3.395-.752 2.554-2.079 2.268-2.173 6.896-.66 7.56-6.706-2.17-6.617.756-5.193 3.487-1.422 8.23-1.132 6.703 2.457 5.765 4.916 2.835 2.643 5.197-2.36 6.151-2.649 5.852-5.573 6.24-3.398 2.831-1.137-1.89-1.799-2.084-.848.477.1-2.459.373-2.266.66-1.98 1.135-1.896-2.08-2.827-6.52 1.034-3.301-1.322 3.49-5.106-1.321-2.545-9.446-3.41 1.414-1.789 3.597-2.65 1.037-1.791.28-3.692-1.317-.472-1.895.76-2.17.469-2.65-.095-.66-.471.092-2.27-.66-.47-.56-.755-.955-1.608-1.321-1.607-1.98-.752-1.322-1.797 1.038-4.16.475-4.252-3.118-2.272-1.327.67-1.609 1.6-2.453 3.308-1.698.945-.66-2.077.285-2.927 1.412-2.556-1.98-2.174-1.416-1.132-.193-.093 2.743-3.22 1.794-7.081-2.266-6.896.19-8.316zM652.501 347.096l-3.401 4.726-3.779 4.633-3.587 5.104-2.272 6.994-5.953-5.01-3.87-7.753-4.912-2.454-5.198-1.895-.19-8.505-.477-9.067-6.894-3.311-7.75.573-5.102 4.346-4.817 3.972-3.875-3.592-2.927-2.838-6.146 1.132-4.725-4.441 1.512-9.83 3.497-9.352 3.31 2.175 3.21-2.459.569-3.308.657-3.398 3.123-3.597 3.49-2.831 4.442-2.554 4.062-2.927.852-2.172 1.515-1.986 2.926-1.51 2.927-1.324 11.34-5.482 10.395-7.749 5.386-9.453 3.298-11.241 1.607 3.114 1.134 3.124 5.39 5.383 3.304 7.18-1.794 4.252-2.27 4.256.19 1.699v2.27l-1.133 1.982-1.42 1.897-7.558 7.18-1.98 9.442 5.003 6.34 6.614 2.735 6.047.189 6.046.284 3.778 1.891 3.593 2.746 3.782 1.891 2.927 2.263-2.643 3.408-3.593 1.79-8.882 3.876-7.651 6.14-.57 5.485z"/>
        <path stroke="#AC5418" stroke-width=".75" d="m781.38 434.133 3.494 4.156 3.21 4.636 3.12 6.235 2.266 7.178 2.552 3.504 2.457 3.58.761 5.766.087 5.858-5.196-4.156-5.105-4.343-2.547-3.689-3.21-2.554-4.252 1.136-4.536 1.23-2.828-.754-3.029-.572-8.785-.752-8.979-1.42-6.898-3.783-6.707-4.633-6.235.388-5.857.657-2.45 2.456-1.325-.566v-1.229l1.416-2.743.377-2.074-.663-2.268-1.128-1.887-.945-.769-.475-.941-4.914-5.474-5.956-4.822-3.492-1.13-9.923-1.708-2.079-.945-1.32-3.12-3.21-1.134-3.973-.75-4.532-2.463-.756.193-.473-.193-.094-1.886.094-2.45-.19-1.047-.47-.468-.665-4.165.38-2.925-3.874-2.08-15.684-4.342-16.348-.19 1.514-9.544-.473-9.079-.854-7.749-3.21-5.761 2.271-6.994 3.588-5.105 7.087 1.697 6.802 1.982 7.182 4.26 7.462 3.497 6.046 3.02 5.67-2.933 5.103-5.761 2.274-8.882 8.498 4.722 9.637-1.04 1.604 8.505 4.724 5.203 5.48 5.107 5.006 5.664 4.916 7.366 5.104 6.715 6.042 1.795 6.332.568 8.313-.098 8.035 1.236 4.248 5.758 1.416 7.658 3.406 6.8 3.778 6.518.375 4.447zM684.438 756.278l15.686-.852 14.078-3.868 1.041 38.454-11.339-2.457h-5.577l-3.964 2.173-3.403 3.497-4.445 2.93-4.725 2.084-4.246 1.225-8.884-.752-5.575-5.578-4.825-8.219-2.164-2.83 1.98-5.868 2.647-4.724 1.224-5.39 3.12-3.115 3.78-2.082 4.063-1.318 3.875.66 3.871-1.605zM465.9 365.804l13.797 1.699-1.421 1.897-3.21 1.418-1.419 1.421-.946 1.888-14.741 11.245-14.643 9.733-5.764 1.986-5.196-3.591-4.536-3.785.38 3.597-12.472-.28-12.379.941-.753-4.349-1.136-4.16-.468-7.838.468-7.848.38-6.613-5.103-1.797-4.157-3.781-3.023-5.67-2.454-1.8-1.89-2.358-1.137-5.294-1.137-5.297 8.412-12.847 10.866-1.61 10.205-1.603 6.05-13.33 4.816-2.833 1.225-1.413.193.093 1.416 1.132 1.98 2.174-1.412 2.556-.284 2.927.659 2.077 1.698-.945 2.453-3.307 1.61-1.6 1.326-.67 3.118 2.271-.475 4.253-1.037 4.16 1.321 1.796 1.986.752 1.316 1.607.953 1.608.566.755.657.47-.092 2.27.66.471 2.65.095 2.17-.473 1.895-.756 1.317.472-.28 3.692-1.037 1.79-3.597 2.651-1.414 1.79 9.446 3.41 1.322 2.544-3.491 5.106 3.301 1.322 6.523-1.034 2.077 2.827-1.132 1.895-.662 1.98-.373 2.267-.1 2.46.847-.478 1.799 2.083 1.137 1.891.375.66v1.228zM534.871 496.124l-7.462 6.708-1.605 7.371-7.563 7.848-20.974 11.907v-9.167l-11.046-9.45-3.784-6.144-4.256-4.92-5.766-1.597-2.826-6.712-3.402-5.486-2.457-4.527 2.266-1.987 2.366-1.512-1.043-2.922-1.229-3.788 3.024-5.003 5.292-2.177 1.132-2.363 2.079-1.414 4.155.276 4.16-.276 5.669-2.458 5.857-1.609 5.009-5.385 2.744-8.217 1.886-10.684 1.698-11.057 3.971-8.698 7.463-17.006 2.459.19 2.266 1.232.092 2.734.945 5.773.29.467-7.372 6.896 6.232 6.612 5.77 6.713-.38 8.878-6.895 5.016-3.504 1.98-2.45 3.408 1.983 3.594 3.301 2.266-3.02 8.13-1.04 6.613 6.513 3.395 5.77 5.296 6.138 5.29 6.146 4.536-1.229 6.996zM622.268 588.36l-.473-10.877-1.893-2.834 1.802-.657-3.877-8.221-4.912-6.901-11.907-11.156-29.285-35.623-10.679-10.114-3.404-2.36-2.36-.57.19-2.074 10.585.846 12.374 9.26 11.338 11.438 20.503 12.664 18.614-12.568 9.54-9.265 9.928 6.143 8.692 4.73 7.182-8.507 7.55 1.324 7.563 3.305 8.503 3.03 8.596 2.921-3.682 11.724-.948 11.805 3.494 4.445 3.215 4.819-.941 6.045-1.606 6.15-4.446.092-4.248-1.134-2.74-1.509-2.926.097-1.986 2.64-1.508 3.21-2.743 2.458-.474 3.311-.376 10.024-5.388 5.093-5.76-3.588-1.89-8.126-3.97-6.52h-6.14l-5.295 6.427-6.05 5.195-3.587.468-3.304 1.706-1.989 2.643-2.55 2.17zM426.598 570.87l5.286 3.402 1.89 2.645-1.983 1.141-17.386 6.896-8.406 5.197-1.702 1.983-.564 2.266-6.33 10.21-2.931 8.691-.945 1.7-1.798 2.176-11.625 6.712-2.073.376-2.652-.657-4.81-2.273-2.84.09-2.833 1.324-1.51-6.227-6.05-7.941-5.665-4.256-6.046-3.592-2.652-6.424-.563-7.553-3.4-5.104-2.455-5.013 1.13-7.087 4.06-3.972 6.9 2.743 6.522.659 2.266-7.56-2.642-7.274 3.687-2.547 4.436 2.925 2.739 1.036 2.646 1.047 1.23 2.643-.283 3.116 5.1 4.446 5.862 3.308 2.266 4.154 4.35-.748 3.018-2.742 3.403-.48 2.738-.186.096-2.937-2.171-7.077 3.682-5.958 6.334 3.213 5.95 3.593 3.401 6.331 3.495 5.385 4.725-.657z"/>
        <path stroke="#AC5418" stroke-width=".75" d="m631.055 654.693-4.062 1.422-11.81.468.847-3.124.097-3.207-.945-2.928-5.194-11.44-2.65-2.639-10.012-4.161-9.924-9.834-4.251-6.14-2.359-6.144.377-7.846 3.208-6.519 5.006-4.91 5.86-3.12 10.96-2.178 9.165-6.328 4.528-1.422 1.893 2.834.473 10.878 6.33 3.578 2.55-2.17 1.99-2.643 3.303-1.706 3.588-.467 6.05-5.196 5.294-6.426h6.141l3.97 6.52 1.89 8.125 5.76 3.588 5.387-5.093.377-10.023.473-3.312 2.743-2.457 1.509-3.211 1.986-2.64 2.926-.096 2.74 1.509 4.247 1.134 4.447-.093-4.54 5.853-3.87 6.435-1.322 8.687 1.321 8.792 6.238 14.36-1.895 15.593-3.494-1.51-3.682.101-.284 3.679-1.606 1.61-3.31-1.046-3.302.945-.098 5.294 2.744 5.102-4.064 3.028-5.003 1.895-4.916 3.487-3.875 5.107-6.234 6.905-8.693 2.359-4.91-6.144-5.956-3.972zM740.464 122.569l9.357-.379 1.038-.284 5.292 10.868 2.548 3.692 2.175 4.336 1.04 4.92 2.078 19.839 1.138 4.165 1.89 1.79.092.189-2.36.284-6.997-5.574-6.612-5.387-5.57 1.702-5.482 2.27h-12.564l-5.768 7.941 3.123 7.842.184 8.598-1.789 3.866-2.457 3.124-3.593.665-3.305.566-5.102 3.588-2.553 6.049 1.512 10.393 2.266 10.498-5.76 3.671-5.202 4.921-8.778-4.82-8.977-4.346.659-10.11-.945-8.601-2.646-5.578 3.398-5.006 4.446-3.404 2.27-5.855-6.334-8.22-7.371-7.373 4.628-11.06 9.077-7.934 2.357-2.736 2.177-2.935v-3.31l-2.363-2.834-.19-9.26 1.98-9.357 5.767-.655 5.48-2.463 5.479 1.893 6.05.47 7.934-3.024 8.22.761zM486.219 511.34l11.046 9.449v9.167l-3.21 1.886-9.262 9.455-2.169 1.604-3.968.473-12.187 4.153-7.279 4.16-5.76 4.822-8.598 11.34-5.86 6.046-5.197 3.02-1.891-2.645-5.286-3.402-5.109 1.14-4.725.657-3.494-5.385-3.402-6.332-5.95-3.593-6.334-3.213 1.325-2.923v-2.55l3.307-.574 3.025-.947-.755-4.432-1.136-4.546 1.513-2.74 1.702-2.36-1.324-5.098-5.103 2.166-3.497 3.031-3.971.474-1.037-3.785 2.833-3.4 7.177-1.61 3.877-5.104-5.573.76-6.518-1.32 3.023-5.2 7.938-.664 4.06-1.606 3.87-2.274 3.028-3.396 3.302-1.79 5.202-.948 5.38-1.428 6.71-1.317 6.613-1.699 13.412-3.595 13.612-3.304 2.827 6.712 5.766 1.596 4.255 4.92zM496.224 292.761l-2.45-3.395-2.838-3.404 6.43-3.597 6.702-1.51 6.238-.28 5.768-2.646 5.946 1.601 5.953 2.08 4.445 1.414 4.339-.277 8.789.936 8.884 2.843 9.255 2.552 7.371 6.142-4.251 10.488.66 9.165 1.325 12.193-7.371 4.156-4.536-1.895-4.532.574-6.805-.95-6.423-3.019-5.952-3.03-5.859-3.025-3.496-.28-2.927 2.454-3.498 1.799-4.151-1.799-4.258-3.488-4.632-2.557-3.676 1.226-3.504 1.231-3.68-2.927-2.93-3.5.66-7.56 2.173-6.896 2.079-2.269zM624.727 513.795l4.155 4.822-18.614 12.563-20.503-12.657-11.337-11.438-12.375-9.26-10.586-.847-.189 2.075-.093-.09-2.078 3.114-1.793 1.706-2.175.468-13.228-.19-4.154 1.047-3.403 2.445-2.552 2.652 1.605-7.37 7.462-6.709 7.372-4.443 1.228-6.996-6.146-4.537-6.137-5.29-5.77-5.295-6.514-3.395 1.04-6.614 3.02-8.13-3.301-2.266-1.982-3.593 2.45-3.408 3.503-1.98 6.895-5.016.38-8.878-5.77-6.714-6.231-6.611 7.37-6.896 1.8 3.972 3.49-1.043 1.702-.945 1.889.38 1.602.662.284.09 1.705.478 1.414.753 2.834 3.211 1.138.76 1.132-.478 1.509-1.98 1.043-.574 1.037.193 1.702 1.038.76.193 2.927 1.516 2.077.377.95-1.045-.195-5.006.195-2.554.564-1.895 1.891-1.034 2.077 1.034 2.079 1.71 1.798.66 3.494-2.28 3.497-3.015 2.739-.188 1.043 6.324 1.321 2.653 9.445 5.863 1.609.655 1.418.19.757.854-.284 3.12 5.67-2.835 3.212-.664 3.02.38 1.326.754 1.604 1.32 1.327 1.609 1.228 3.777 1.321-.566 2.175-2.36.656-.29.853-.561 1.23-.477 1.417-.087 1.42.946.848 1.41 1.325 2.082-.38 2.74-2.078 1.603-3.5.95-3.678 2.922-3.496 3.41-2.365 3.775-1.696 3.974 1.696 2.647 2.174 2.547.76 5.2-2.275 4.921-2.926 5.47-1.418 6.048 1.698 5.294 2.837 4.545 10.586 3.58 8.216 7.56-.375 3.026-.854 2.746-.278 5.1.093 5.2z"/>
        <path stroke="#AC5418" stroke-width=".75" d="m527.973 281.61-5.953-2.08-5.946-1.609 4.624-5.85 4.44-6.055 3.592-6.708 5.102-4.35 7.934-3.49 6.805-5.391.093-5.29.566-5.004 2.27-.852 2.651-.472 5.097-4.254.57-7.185-4.252-7.183-1.795-7.464.947-2.74 1.508-2.459 2.46.38 2.456.472 1.418-3.595.845-4.245 1.99-3.878 2.735-3.118 5.2 1.132 5.194.472 4.916 2.075 4.91 2.743 9.358 5.387 9.45 4.352 13.224.941 10.2 9.075 7.748 8.874 9.168 6.434 1.132 10.11-5.484 9.923-3.298 11.241-5.385 9.453-10.395 7.75-11.34 5.48-2.928 1.326-2.926 1.51-1.515 1.985-.851 2.172-4.063 2.927-4.44 2.554-3.492 2.83-3.123 3.598-.657 3.399-.568 3.307-3.21 2.46-3.311-2.18-7.082 2.648-7.09 1.702-.66-9.166 4.255-10.487-7.375-6.142-9.255-2.552-8.884-2.844-8.789-.936-4.339.277z"/>
        <path stroke="#AC5418" stroke-width=".75" d="m622.08 416.18-1.42 3.113-2.646 3.779-.848-1.409-1.42-.947-1.415.088-1.23.477-.855.56-.655.29-2.175 2.36-1.321.567-1.229-3.777-1.327-1.61-1.603-1.32-1.327-.753-3.02-.38-3.212.664-5.67 2.834.285-3.12-.758-.854-1.417-.189-1.61-.655-9.444-5.864-1.321-2.652-1.043-6.324-2.74.187-3.496 3.015-3.502 2.281-1.79-.66-2.08-1.71-2.076-1.034-1.89 1.034-.565 1.895-.195 2.554.195 5.006-.95 1.045-2.077-.377-2.927-1.516-.76-.193-1.702-1.038-1.038-.193-1.043.574-1.508 1.98-1.132.477-1.138-.759-2.834-3.211-1.414-.754-1.706-.477-.284-.09 4.349-3.12 5.105-2.46 3.97-4.344 2.828-5.199-1.98-16.445.19-17.008 4.444-4.728 3.303-6.047 1.513-9.071.944-9.45 7.372-4.156-1.325-12.193 7.089-1.702 7.082-2.643-3.497 9.351-1.512 9.83 4.725 4.442 6.146-1.132 2.927 2.838 3.875 3.592 4.818-3.972 5.101-4.346 7.75-.573 6.895 3.311.477 9.067.189 8.505 5.198 1.895 4.909 2.454 3.875 7.753 5.953 5.01 3.211 5.762.854 7.749.473 9.078-1.514 9.545-5.67 3.11-4.632 4.73-5.57 3.21zM703.995 685.691l-2.266 2.732-5.198 3.122-5.573 2.836-6.236 4.164-6.71 1.412-6.143-3.779-5.664-5.102-4.822 9.64 1.986 9.918 7.748 5.2 7.655 5.296 2.641 4.812 2.268 4.922-.473 4.338.284 3.88 3.59 2.546 3.028 3.694-2.086 5.472-3.586 5.484 15.686-.852 14.078-3.868-.946-35.254-4.161-10.672-.75-3.689-.378-3.688-.192-8.122 6.329 1.696 4.916-6.138-5.575-1.606-6.802-.1z"/>
        <path d="m754.802 635.415-.002.004 13.255-15.597z"/>
        <path stroke="#AC5418" stroke-width=".75" d="m713.445 684.085 8.735-10.279zM754.8 635.419l.002-.004zM775.237 621.711l-6.438-1.692-7.542-3.692-6.052-1.799-5.384-3.679-3.5-7.376-5.1-4.533-8.69 6.894-7.845 9.07-6.898 7.557-6.041 8.132-1.422 7.369.188 7.56 4.064 3.688 3.966 4.06-.095 5.295.665 6.05 2.648 7.368.42 1.823.11-.134.6 3.234.566-1.519 1.355-4.68 3.37-11.668.659-5.58-2.834-4.904-.56-5.67.276-10.59.473-.278h.858l.844-.477.375-1.795-.09-2.454.192-1.136 1.416-3.313.657-2.358 1.045-1.796 2.073-.756 7.468-.287 3.307.855 3.118 2.64.662 2.654.945 9.35v2.082l5.734.193 2.676.09 3.397 1.798 1.99 4.347-.101 4.533-1.414 4.538-2.365 3.5-2.639 1.41-7.848 1.605-1.605 1.706-.282 1.605.092 1.795-.567 2.647 4.821 4.063 6.896-2.743 13.134-9.355 1.61-4.067.843-4.902.476-8.041.853-3.592 2.452-7.372.76-4.054zM754.8 635.419l.002-.004z"/>
        <path stroke="#AC5418" stroke-width=".75" d="m719.113 664.614 2.648 7.37 1.13 4.92-3.398 8.217-.473.57-5.577-1.606-6.801-.1-2.649 1.706-2.266 2.732-5.198 3.124-5.573 2.834-6.236 4.164-6.71 1.414-6.143-3.779-5.666-5.103-2.175-9.548-5.768-7.09-8.973-1.409-3.209-9.075 8.693-2.359 6.234-6.905 3.875-5.106 4.916-3.488 5.003-1.895 4.065-3.027-2.745-5.103.098-5.293 3.302-.945 3.31 1.045 1.606-1.61.284-3.678 3.682-.1 3.494 1.509 9.26 4.352 10.586-.76-1.421 7.368.19 7.56 4.062 3.686 3.966 4.062-.095 5.295z"/>
        <path stroke="#AC5418" stroke-width=".75" d="m660.723 771.493-2.647 4.724-1.98 5.867-4.346-5.772-2.652-3.785-2.925-3.298-2.834-4.639-2.834-2.546-2.271-3.117-1.132-6.049-1.986-5.01h-4.152l-8.882 4.256-5.294-.094-3.21-3.126-2.744-4.152-8.403-6.9-.386-3.875.763-4.438-.854-3.312 4.159-2.079 2.359-3.782 2.362-2.924.854-4.92 1.6-4.433 2.934-4.069 3.307-3.491 3.871-2.458 3.5-3.023 16.062-9.732 15.298-10.875 5.768 7.09 2.175 9.548-4.822 9.64 1.986 9.919 7.748 5.2 7.656 5.296 2.64 4.813 2.268 4.92-.473 4.339.284 3.879 3.593 2.547 3.023 3.693-2.082 5.472-3.588 5.485-3.78 2.363-3.871 1.606-3.875-.661-4.063 1.318-3.78 2.082-3.12 3.115zM779.21 546.677l6.7-1.98.946-.19.091 3.02 1.798 4.16 16.257 15.12 2.073 2.646 1.418 2.931-.189.947-.757.848-1.13 7.651.282 2.268 1.42 2.655-2.177-1.144-1.51-1.509-1.226-1.702-1.043-1.886h-1.034l.661 3.302 1.507 3.785 2.08 3.308 2.741 1.886v1.71l-3.876-.955-2.45-2.736-2.275-3.311-8.968-6.046-5.773 2.267-4.527 5.954-1.8 7.276.193 24.947-.659 3.03-2.743-3.218-7.182-1.891-6.798-3.495-6.053-1.799-5.382-3.679-3.5-7.376-5.1-4.533-8.693 6.896-7.844 9.07-6.899 7.555-6.042 8.134-10.586.761-9.26-4.353 1.894-15.593-6.237-14.36-1.321-8.792 1.321-8.687 3.871-6.435 4.54-5.852 7.933 6.05 7.845 6.33 6.518 1.225 6.139-4.818 3.31-.756 1.791-2.834-.942-5.298-.565-5.665 4.152-7.749.757-.57 1.797-1.321.57-1.418 5.003-4.726 1.043-3.588.658-2.458 4.345-4.254 5.857 6.148 6.05 7.463 3.871 1.892 4.064.844 3.211-.659 3.025-2.172zM689.915 267.335l6.521-5.104 7.184-4.154 10.103 2.93 9.357 7.09 4.156 3.871 3.687 4.823 6.804 7.369 7.653 5.674 9.446 3.308 7.466 7.747 9.357 9.64 11.332 6.05-3.59 6.708-4.817 4.817-5.009 4.063-5.294 2.36-5.477 1.044-5.007 2.835-2.652 5.1-3.493 3.59-5.951 1.99-4.913 5.097-3.875 3.874-3.78 3.972-3.12 3.495-3.297-2.174-5.674-3.872-5.95-2.459-9.64 1.04-8.498-4.723-6.906.756-6.8.284-1.13-3.5 4.91-2.739 3.117-2.648.948-4.63 2.082-4.063 1.98-3.968 1.134-3.878-2.171-3.213-.755-3.304.28-3.968-.66-4.913-1.23-4.72-.098-4.355-.751-3.785-2.65-2.17-1.602-2.921 2.652-4.35 3.11-4.35-.659-9.927zM757.753 166.415l6.998 5.574 2.36-.284 1.135 2.461 3.021 16.35 8.318 13.7 20.874 23.524 1.424 2.18-.659.376-6.993-.19-6.807 1.13-8.123 2.273-8.6-.757-7.371-2.647-6.895-4.442-4.912-1.893-4.348-3.02-1.225-8.412-3.88-3.304-3.78 1.323-2.74 3.026-.848 3.68-1.136 3.312-5.67 3.395-6.33 1.893-5.664 2.176-5.862.287-2.266-10.498-1.513-10.393 2.554-6.049 5.101-3.588 3.306-.566 3.592-.664 2.458-3.124 1.789-3.867-.184-8.597-3.118-7.843 5.762-7.94h12.564l5.483-2.27 5.569-1.702zM664.6 505.197l-5.01 4.342 4.633 2.177-7.182 8.507-8.693-4.73-9.927-6.144-9.54 9.266-4.156-4.822-2.646-5.385-.093-5.199.278-5.104.854-2.742.375-3.025-8.216-7.56-10.586-3.58-2.837-4.546-1.698-5.294 1.418-6.048 2.926-5.477 2.275-4.913-.76-5.201-2.174-2.547-1.696-2.647 1.696-3.974 2.365-3.775 3.02 4.72 3.685-.468 4.537-2.46 4.629-2.64 5.948-2.746 6.046-1.043 4.159 1.988 3.684 3.213-1.221 3.117-1.234 3.5 1.703 3.399 2.741 1.982 2.268.193 1.698-1.891 3.779-2.268 4.348.28 7.559 4.156 7.178 4.818 7.375 3.41 5.57 7.269-.091 4.442-1.134 4.156.757 5.861 2.266 5.107v7.935l-4.348 6.708-8.033 3.974z"/>
        <path stroke="#AC5418" stroke-width=".75" d="m735.648 494.04.284 2.556-1.891 3.211-2.366 6.335-2.359 2.266-3.214 1.222-3.682 3.875-5.198 2.838.657 5.203-.845 3.776-3.88-1.793-4.248-2.555-6.232.758-6.24.562-8.596-2.921-8.503-3.03-7.563-3.305-7.55-1.324-4.631-2.177 5.008-4.342 8.498-1.7 8.032-3.974 4.349-6.708v-7.935l-2.272-5.106-.752-5.862 1.134-4.156.091-4.442-5.57-7.268-7.374-3.41-7.178-4.819-7.56-4.156-4.348-.28-3.778 2.268-1.698 1.892-2.268-.193-2.741-1.983-1.704-3.398 1.235-3.501 1.22-3.116-3.683-3.213-4.16-1.988-6.045 1.043-5.948 2.745-4.629 2.641-4.537 2.46-3.686.467-3.02-4.72 3.497-3.41 3.678-2.921 3.5-.95 2.077-1.604.38-2.74-1.325-2.082 2.647-3.78 1.42-3.112 4.533-4.448 5.57-3.209 4.632-4.73 5.67-3.11 16.347.19 15.684 4.342 3.875 2.08-.38 2.925.664 4.165.471.468.19 1.046-.095 2.45.095 1.886.473.193.755-.193 4.532 2.464 3.973.75 3.211 1.134 1.32 3.114 2.078.95 9.923 1.708 3.493 1.123 5.955 4.83 4.915 5.474.475.94.944.77 1.129 1.887.662 2.268-.377 2.073-1.416 2.744v2.079l2.734 5.104 1.986 2.834.853 2.08.097 1.512-.193 4.345.096 1.795.568 1.895 1.414 2.452.377 2.075-.566 1.513-1.037 1.706-.66 1.891.565 1.89 5.386 5.193z"/>
        <path stroke="#AC5418" stroke-width=".75" d="m797.25 493.761.76 7.652 1.698 6.904-3.78 4.63-3.306 5.761.19 3.872-2.079 3.785-1.798 5.1-1.318 5.287-.759 4.545v3.21l-.946.19-6.7 1.98-6.81 2.271-3.024 2.172-3.21.66-4.065-.845-3.871-1.892-6.05-7.463-5.857-6.148-4.345 4.254-.659 2.458-1.043 3.588-5.003 4.726-.57 1.418-1.796 1.321-.757.57-4.152 7.75.564 5.664.943 5.298-1.79 2.834-3.311.756-6.14 4.818-6.517-1.225-7.845-6.33-7.934-6.05 1.606-6.15.94-6.045-3.214-4.819-3.494-4.445.948-11.805 3.682-11.724 6.24-.562 6.231-.758 4.248 2.555 3.88 1.793.845-3.776-.657-5.203 5.198-2.838 3.682-3.875 3.211-1.222 2.36-2.272 2.367-6.329 1.885-3.211-.278-2.556-2.646-3.211-5.386-5.194-.564-1.89.659-1.89 1.037-1.707.566-1.512-.377-2.075-1.414-2.452-.568-1.896-.096-1.794.193-4.346-.097-1.512-.853-2.08-1.986-2.834-2.734-5.104v-.85l1.322.566 2.453-2.456 5.857-.657 6.236-.388 6.707 4.633 6.898 3.783 8.978 1.42 8.786.752 3.028.571 2.829.754 4.535-1.229 4.252-1.136 3.21 2.554 2.547 3.688 5.105 4.344 5.197 4.156-2.454 8.885zM658.358 219.432l11.247 4.718 11.717 3.406 8.977 4.346 8.778 4.82-2.17 11.532 6.711 9.823-7.184 4.154-6.521 5.104-2.17 9.64.66 9.926-3.111 4.35-2.652 4.35 1.602 2.922 2.65 2.17.751 3.784.099 4.355 1.228 4.72.66 4.913-.28 3.968.756 3.304 2.171 3.213-1.134 3.878-1.98 3.968-2.082 4.063-.948 4.63-3.116 2.648-4.91 2.738 1.13 3.5 6.8-.283 6.905-.756-2.274 8.882-5.103 5.762-5.67 2.932-6.046-3.02-7.462-3.497-7.182-4.256-6.802-1.986-7.087-1.696 3.778-4.633 3.402-4.726.568-5.57.57-5.485 7.651-6.14 8.882-3.876 3.593-1.791 2.643-3.408-2.927-2.263-3.782-1.891-3.593-2.745-3.779-1.892-6.046-.284-6.046-.19-6.614-2.733-5.004-6.34 1.98-9.443 7.56-7.18 1.419-1.897 1.132-1.982v-2.27l-.19-1.699 2.269-4.256 1.796-4.252-3.305-7.18-5.39-5.383-1.134-3.123-1.607-3.115 5.484-9.923-1.132-10.11-9.168-6.434-7.748-8.874 14.173.09zM822.857 281.988l5.95-.665 1.134-.657 1.227 1.98 3.023 2.937 3.496 2.549 2.266 1.132 7.563.471 3.493.847 2.75 1.61 6.232 5.571.948.476-.571 2.177-1.327 2.647-1.51 2.643-8.785 3.029-8.88-.85-3.029-4.724-2.833-5.11-5.95-6.994-6.71-4.438zM552.351 329.9l4.534-.573 4.534 1.895-.945 9.45-1.512 9.07-3.304 6.048-4.444 4.728-9.918.663-9.637 1.603-9.164-1.132-8.699.284-4.248 2.834-4.439.566-2.745-3.684-2.926-4.442-9.832-7.56-10.105-6.808-2.643-5.197-4.916-2.835-2.457-5.765 1.132-6.703 1.421-8.23 5.193-3.487 6.618-.756 6.705 2.17 2.93 3.5 3.68 2.928 3.504-1.23 3.677-1.228 4.632 2.558 4.257 3.488 4.152 1.798 3.498-1.798 2.926-2.454 3.497.28 5.859 3.024 5.951 3.031 6.423 3.018z"/>
        <path stroke="#AC5418" stroke-width=".75" d="m794.231 230.109 6.993.189.659-.377.278.472 1.605 3.691 3.688 3.204 7.934 4.822 3.97-.944L822.57 244l3.12 3.876 3.492 1.986 1.893 2.17-.755 5.013-3.027 8.501-1.034 4.438-.287 2.367.287 2.546.657 1.515 2.36 2.834.572 1.23.093.192-1.134.657-5.95.665-1.512 4.633-3.496 5.947-4.816 4.252-2.367 2.746-1.98 2.834-.755 4.347-.854 4.349-11.239 5.108-12.853.375-11.332-6.051-9.357-9.639-7.466-7.748-9.446-3.307-7.654-5.675-6.803-7.368-3.688-4.823-4.155-3.872-9.357-7.088-10.103-2.931-6.71-9.823 2.169-11.532 5.202-4.92 5.76-3.672 5.863-.288 5.664-2.175 6.33-1.894 5.67-3.394 1.135-3.312.848-3.68 2.741-3.026 3.779-1.324 3.88 3.304 1.225 8.412 4.349 3.02 4.912 1.894 6.894 4.441 7.372 2.647 8.6.758 8.123-2.274zM608.47 720.366l-2.359 3.782-4.159 2.08-.471-1.983-2.172-1.89-23.058-11.626-11.332-9.354-3.5-6.518-.377-9.36 1.61-2.646 9.161-5.767.476-1.416-.099-1.797.659-1.416 32.221-5.858 7.176-4.53v-.1l1.611-2.364 1.322-2.927v-.095l11.81-.468 4.063-1.422 4.155-.852 5.955 3.973 4.91 6.143 3.21 9.075 8.972 1.409-15.297 10.875-16.062 9.732-3.5 3.024-3.872 2.457-3.307 3.492-2.934 4.068-1.6 4.433-.853 4.92zM551.026 377.526l1.98 16.445-2.828 5.2-3.97 4.343-5.105 2.46-4.348 3.12-1.602-.662-1.889-.38-1.702.945-3.494 1.043-1.795-3.972-.29-.468-.944-5.773-.093-2.734-2.266-1.232-2.459-.19h-.759l-2.824-.942-1.234-2.93-.85-6.047-1.984.097-5.384 6.806-2.073-1.422-1.605.567-1.515.948-2.08-.093-1.037-.95-1.043-2.745-1.51-1.225-4.158-.567-3.4 2.08-2.934 2.457-2.736.95-.374-1.136-4.252-6.905-3.593-7.653-.95-1.416-.945-.664-.28-.752.946-1.888 1.418-1.422 3.21-1.418 1.422-1.897-13.798-1.698v-1.225l-.375-.659 3.398-2.83 5.573-6.241 2.649-5.852 2.36-6.152 10.105 6.809 9.833 7.56 2.926 4.442 2.745 3.684 4.44-.566 4.247-2.834 8.698-.284 9.165 1.132 9.637-1.604 9.917-.663z"/>
        <path stroke="#AC5418" stroke-width=".75" d="m516.64 394.727 2.824.943h.76l-7.463 17.006-3.972 8.698-1.698 11.057-1.885 10.684-2.745 8.217-5.009 5.384-5.857 1.61-5.67 2.457-4.158.277-4.156-.277-2.078 1.415-1.132 2.363-5.293 2.177-3.023 5.002 1.228 3.789 1.043 2.921-2.366 1.513-2.266 1.986 2.457 4.527 3.402 5.487-13.612 3.304-13.416 3.595 4.916-9.637-2.645-8.794-8.598-5.573-4.535-10.019 1.412-.852 1.234-1.129 3.775-7.936-3.964-6.714-7.656 1.229-7.462 2.834-14.266-3.11-3.877-11.245 2.268-1.424 2.173-1.702.377-6.422.284-6.239 6.523-2.083 4.816-4.341-5.2-4.537.665-5.197 8.223-5.384 7.178-7.277-.38-3.597 4.535 3.785 5.197 3.592 5.764-1.987 14.642-9.733 14.741-11.245.28.752.945.665.95 1.416 3.593 7.653 4.246 6.905.38 1.136 2.736-.95 2.934-2.458 3.4-2.08 4.16.567 1.508 1.225 1.043 2.745 1.037.95 2.08.093 1.515-.948 1.605-.566 2.073 1.422 5.384-6.807 1.984-.097.85 6.048zM272.111 76.835l-5.289-2.841-4.251-.942-.284-1.702-3.872-7.276-.376-1.323-2.361.09-1.23 1.798-.852 2.075-1.509 1.234-4.725-3.874-2.179-10.303-.094-11.525 1.61-7.852 3.399-3.482 3.78-.477 8.22 1.886 3.592-.377 2.834-1.32 2.453-2.275 7.56-8.97 3.778-5.864L288.929 0l3.778 1.041 4.629-.185 8.123 1.037 3.123 1.795.947 4.351-.854 9.258 1.043 3.97 3.023 2.458h3.4l2.932-1.893 5.759-4.913 3.5-1.225 7.082-1.426 2.179-1.605 1.224 5.2-2.453 7.937-5.955 6.239-6.705 4.722-5.48 3.408-5.104 3.968-2.832 6.423-2.08 6.988-3.97 5.203-5.193 3.495-6.146 1.986-5.954 1.325-4.725 3.308-4.72 3.491zM508.982 164.9l.193-5.852.279-2.84 5.1 2.647 3.405.664 12.182-1.138 1.329 3.028 5.569 3.591 6.334 1.513 6.52 1.038 4.439 13.607 13.794 8.034-2.736 3.118-1.989 3.877-.844 4.245-1.418 3.596-2.457-.472-2.46-.38-1.508 2.46-.947 2.739 1.795 7.464 4.252 7.183-.57 7.185-5.096 4.254-2.652.472-2.27.852-.566 5.004-.093 5.29-6.805 5.39-7.934 3.492-5.101 4.349-3.593 6.708-4.44 6.054-4.624 5.858-5.768 2.647-6.238.28-6.701 1.51-6.43 3.597-5.67-3.313-4.252-4.528-.473-10.023-.564-10.02 6.14-1.792 1.51-5.955.287-13.984 3.493-13.229 2.93-5.106 2.927-5.004.662-5.574-.759-5.394 5.392-9.728 5.001-10.775 1.329-5.858 1.505-5.39-.564-2.642z"/>
        <path stroke="#AC5418" stroke-width=".75" d="m448.703 165.377 2.077-12.286 1.609-9.349 1.321.468 18.046 1.795 3.779 1.225 4.912 6.806 3.21 2.55h3.597l6.138-4.059 3.4-1.325 3.496.38 9.166 4.626-.279 2.84-.193 5.852.85 2.745.565 2.642-1.506 5.39-1.328 5.858-5.002 10.775-5.391 9.728.76 5.394-.663 5.574-2.927 5.004-2.93 5.106-3.493 13.23-.288 13.983-16.719-8.881-15.589-11.816-2.929-3.393-2.275-4.073-.944-4.911-1.038-4.061-2.55-.19-2.457.848-1.607-2.073.664-3.124-3.875-4.343-2.926-5.394 2.17-9.251 3.783-8.418 3.682-8.03zM334.285 182.957l-7.937-.284-5.194-3.972.946-1.324 1.505-7.374.854-7.837 1.702-6.147 1.037-1.417 2.27-2.175 1.037-1.413.38-1.514.19-3.969.377-1.789 1.512-1.802 1.418.183.568-.276-1.04-3.308-5.574-8.315-3.302-3.685-1.141-1.982-.186-.097 1.327-6.43 7.652-9.638 5.664-12.377 5.766-9.166 8.97-2.933 11.624.665 11.244 3.5 10.3-2.178 6.993-9.73 6.995-.941 3.301-1.237 3.406-.657 3.118.748 2.74 3.219 1.326 3.965.658 3.875 1.225 3.312 3.027 2.266.473.468-.473 1.045-1.793 9.258-4.064 7.273-14.366 9.639-15.587 6.806-7.175 3.124-6.714 4.249-2.83 3.591-1.702 4.065-2.27 3.304-3.21 2.554-3.688 8.503-1.037 10.959.95 8.895 7.93 4.152 12.096 19.374.477 25.98-14.74-8.029-14.93-4.533-.853-6.045-2.553-5.297-1.038-6.614-.755-6.422z"/>
        <path stroke="#AC5418" stroke-width=".75" d="m417.243 101.494 1.793-9.258.473-1.045 1.321 1.329.852 2.075.566 2.266.949 2.27 5.38 6.712 1.327 2.74.66 5.578-.377 11.897 1.793 5.298 3.023 3.024 13.225 7.846 4.163 1.518-1.61 9.35-2.076 12.285-3.684 7.846-3.682 8.03-3.784 8.417-2.17 9.251 2.927 5.394 3.875 4.344-.664 3.124 1.607 2.073 2.457-.848 2.55.19 1.037 4.06.945 4.912 2.275 4.072 2.929 3.393 15.589 11.816 16.719 8.882-1.509 5.955-6.14 1.793-6.895 1.325-6.614-1.513-3.12-1.509-3.116-.945-1.705.758-1.415.852h-4.255l-4.344-1.896-7.179-1.793-7.182-1.514-13.325-5.765-13.32-5.383-15.592-8.696-15.869-8.037-.477-25.98-12.096-19.375-7.93-4.153-.95-8.894 1.044-10.959 3.68-8.503 3.211-2.554 2.27-3.304 1.702-4.065 2.83-3.592 6.714-4.248 7.175-3.124 15.587-6.807 14.366-9.639zM578.519 190.795l-5.195-.471-5.2-1.132-13.794-8.034-4.44-13.607 33.73-25.43 34.582-23.901 11.814-9.83 12.944-6.513 10.391-3.217 9.732-5.578 3.59 6.903 4.539 6.706 3.118 6.428 3.212 6.235 3.021 4.156 4.341-1.041 4.165-1.506 3.394 3.018-1.98 9.357.19 9.26 2.363 2.835v3.31l-2.176 2.934-2.357 2.736-9.077 7.935-4.629 11.059 7.372 7.373 6.334 8.22-2.27 5.855-4.447 3.404-3.398 5.006 2.647 5.578.944 8.601-.658 10.11-11.718-3.406-11.247-4.718-13.606-3.972-14.173-.09-10.2-9.076-13.225-.94-9.45-4.353-9.357-5.387-4.91-2.743z"/>
        <path stroke="#AC5418" stroke-width=".75" d="m537.04 165-5.569-3.591-1.328-3.028 2.652-.183 7.365-2.272 4.065-2.547.755-2.177-.848-2.933-.854-4.724.57-4.726 1.605-2.262 2.266-1.61 2.56-3.027 1.504-4.152.849-3.597 1.8-1.98 4.532.851 3.971-2.266 5.67-16.355 3.4-6.327 5.67-3.5 20.218-3.873L603 87.974l9.164-7.748 15.023-9.26 3.968-4.256 3.596-6.602 7.364-19.85 1.038-1.414 4.635-.377 4.629 4.904-3.97 12.098 3.122 11.057 4.72.47 4.347 1.14-.096 4.529-2.83 4.066 3.21 6.803 2.174 9.544-9.732 5.578-10.391 3.217-12.945 6.513-11.814 9.83-34.581 23.902-33.73 25.43-6.52-1.038z"/>
        <path stroke="#AC5418" stroke-width=".75" d="m652.409 43.374-4.629-4.903-4.636.376 12.007-15.216 8.504-13.231 1.891 1.6 5.285 3.224 6.238 5.377 15.305 20.975 6.046 5.954 2.366 3.5 1.038 5.573 11.901 13.23 6.716 14.178 3.495 1.234 2.927 3.017 2.173 3.595 1.509 2.927 4.068 5.864.657 1.32.946.94 4.25 1.326 1.512.848 2.548 3.78 6.333 13.042-1.038.284-9.357.38-9.07-1.605-8.219-.76-7.934 3.023-6.05-.47-5.478-1.893-5.48 2.463-5.768.655-3.395-3.018-4.164 1.506-4.34 1.041-3.022-4.156-3.213-6.235-3.117-6.428-4.54-6.706-3.589-6.903-2.173-9.544-3.21-6.803 2.83-4.067.096-4.529L656.28 67l-4.72-.47-3.121-11.056zM332.682 108.39l-7.652 9.639-1.326 6.43-1.326-.853-2.646 1.042-2.834-6.335-8.503-5-17.005-7.093-8.127-7.56-3.587-.852-1.986-.85-9.164-6.235-3.023-3.876-1.513-4.918-1.418-8.877 4.252.942 5.29 2.841 5.389-.48 4.719-3.492 4.725-3.308 5.953-1.325 6.147-1.986 5.193-3.495 3.97-5.197 2.08-6.992 2.832-6.423 5.103-3.968 5.48-3.408 6.706-4.722 5.955-6.239 2.453-7.936-1.225-5.201.941-.754 3.027-2.927h1.412l.763 2.552 1.509 8.973.945 3.124 1.701 2.64 11.53 10.397 2.927 1.803 2.17.56 4.632.66 1.98.95.854 1.325.944 4.248.661 1.702 2.266 3.115 8.698 7.276 4.341 6.901 1.51 6.8 2.46 4.26.377-.097-6.993 9.73-10.3 2.179-11.245-3.5-11.623-.665-8.97 2.932-5.767 9.166zM444.83 480.432l2.645 8.795-4.913 9.637-6.612 1.698-6.71 1.318-5.38 1.428-5.203.948-3.301 1.79-3.03 3.396-3.868 2.274-4.061 1.606-7.937.664-3.024 5.2 6.518 1.32 5.573-.76-3.877 5.104-7.176 1.61-2.834 3.4 1.037 3.785 3.972-.474 3.496-3.03 5.104-2.167 1.323 5.097-1.702 2.361-1.512 2.74 1.135 4.545.756 4.433-3.025.947-3.307.573v2.55l-1.325 2.924-3.682 5.958 2.171 7.078-.097 2.936-2.737.186-3.403.48-3.018 2.742-4.35.748-2.266-4.154-5.863-3.308-5.1-4.445.284-3.117-1.23-2.643-2.646-1.047-2.74-1.035-4.435-2.926-3.688 2.547 2.643 7.28-2.266 7.554-6.523-.659-6.898-2.743 3.118-4.626 1.701-5.392-2.076-3.493-3.023-2.268-3.684.95-3.684.941-4.25-.659-4.255-.85 4.82-3.306 3.308-4.913-1.037-5.862-3.025-3.311 4.628-5.377 7.836-1.322 4.825-7.564 4.634-7.656 4.339 4.065 4.632 2.452 5.953-4.253 5.38-5.197-2.073-8.882-5.67-6.335-3.119-3.298-2.171-4.252 1.605-3.12 2.075-3.125 6.709-3.39 6.807-2.752 3.394-5.477 1.891-6.612 7.56-1.795 7.18 3.588 9.546 6.423 9.92 2.363 2.358-3.592 2.648-3.688 5.577-.657 5.575 1.509 4.536 10.02z"/>
        <path stroke="#AC5418" stroke-width=".75" d="m311.895 560.479-7.847-1.043-6.801-4.35h.093l2.175-1.044 1.132-1.697.096-2.168-1.228-2.366.096-3.774 1.982-1.891 2.548-1.606 1.61-2.93-.569-3.78-2.078-2.933-2.93-1.89-2.834-.66-10.957 1.134-3.497-.66-2.55-1.888-4.158-5.67-2.454-1.987-5.955-.471-11.907 6.138-6.047 1.327-3.87-1.232-2.55-2.456-4.16-7.84-2.553-3.123-2.929-1.796-6.61-1.892-5.48-4.436-6.711-13.797-4.822-4.725-10.96-3.306-5.666-2.937 3.307-2.643 6.705-4.913 6.427-5.769 3.209-7.56 3.5-5.574 4.532 3.683 4.348 4.922 5.955-.753 6.141-1.901 12.659-1.79 12.187-4.254 7.559-3.306 7.752-1.225 7.367-2.741 7.37-3.215-2.457 6.901 1.421 5.854 3.97 2.647 3.59 3.501 6.047 12.56 3.023 14.369 1.795 7.083 1.041 7.183-2.93 5.862-2.363 6.235.76 6.147 3.872 1.419 3.308 1.702 3.019 2.743 7.275-.954 5.387-9.162 4.725-1.606 4.818.468 2.457 5.014.848 6.427-7.839 1.322-4.628 5.377 3.025 3.312 1.037 5.861-3.309 4.914-4.82 3.305-6.894 4.912z"/>
        <path stroke="#AC5418" stroke-width=".75" d="m325.59 626.914-1.888-16.536-5.384-.57-.284-.665-1.136-1.321-1.132-1.041-7.462-5.385-4.254-4.535-1.7-3.311-.944-3.683-1.23-3.302-2.835-2.366-12.564-5.667-5.671-4.446-2.36-7.18 2.267-5.954 5.48-3.404 12.756-2.458 6.801 4.35 7.847 1.043 6.801-5.39 6.895-4.912 4.255.85 4.25.659 3.684-.941 3.684-.95 3.023 2.268 2.077 3.493-1.702 5.392-3.118 4.626-4.06 3.972-1.13 7.087 2.454 5.013 3.4 5.105.563 7.552 2.652 6.424 6.046 3.592 5.666 4.256-6.991 3.97-6.798 4.531-5.86 6.809-5.004 7.376zM351.578 510.862l-4.634 7.657-4.821 7.564-.848-6.428-2.458-5.014-4.817-.467-4.725 1.605-5.388 9.162-7.275.954-3.019-2.743-3.307-1.702-3.873-1.418-.76-6.148 2.363-6.235 2.93-5.862-1.04-7.183-1.795-7.083 3.97-.66 3.962-.472 3.593-1.799 3.59-1.891 6.431.664 6.14 3.211 4.912 5.105 3.874 6.519 2.834 2.648 2.363 3.12.751 3.401zM349.97 410.22l-2.456 6.15-.854 8.217-4.06-4.624-2.265-5.108-2.173-4.633-4.444-3.584-8.784-8.314-10.395-1.047-3.876 3.027-3.968 1.322-2.272-6.239-1.601-7.56-1.893-8.126.848-8.315 1.702-1.604 1.701-1.414 1.23-3.785.66-3.972 6.046-7.932 9.635-3.784 8.411-5.196 8.6-3.872 6.52.28 6.514-.185 3.78-2.276 3.498-2.646 3.4-2.547 3.5-2.176 3.875-3.871 4.155-3.973 1.318 3.501.857 3.865 2.647 3.885 3.11 3.49 1.138 5.297 1.136 5.293 1.89 2.36 2.454 1.798 3.023 5.67 4.157 3.782 5.104 1.796-.38 6.614-.468 7.848.467 7.838 1.136 4.16.754 4.349-4.911.664-4.634-1.424-1.6-5.86-3.31-4.157-3.965 1.702-4.35-.848-1.89-1.803-2.265-.844-1.23 2.929 1.037 3.684-10.96 5.39-9.445 4.247-1.321 7.839z"/>
        <path stroke="#AC5418" stroke-width=".75" d="m316.045 486.389-3.963.471-3.97.661-3.022-14.368-6.047-12.56-3.59-3.502-3.97-2.646-1.422-5.855 2.457-6.9 5.386-3.214 4.82-3.016 5.29 2.64 4.725 3.494 5.48-3.21 3.779-5.764 6.427-3.308 7.178-1.318 6.14 4.533 7.187-2.079 8.401 4.346 4.348 10.114 6.143 5.85 7.086 3.403-1.513 6.15-3.494 4.717-3.872 6.809-3.5 7.083-2.074 3.124-1.606 3.12 2.172 4.252 3.12 3.299 5.669 6.335 2.073 8.881-5.38 5.198-5.954 4.252-4.632-2.452-4.339-4.065-1.045-3.495-.751-3.4-2.363-3.12-2.834-2.65-3.875-6.518-4.912-5.105-6.14-3.21-6.43-.665-3.59 1.891zM357.335 608.577l6.05 7.94 1.509 6.228v.095l-2.74 2.276-2.267 2.741-4.534 7.933-1.043 1.415-1.321 1.134-2.927 1.609-1.32 1.138-2.084 3.39-2.924 6.999-2.933 2.747-10.108 5.28-3.213 2.746-2.264 3.122-4.916 10.296-1.98 3.31-2.457 2.74-2.743 2.267-2.741 1.799-3.779 1.605-3.209.188-6.053-13.138-.756-2.64-.092-2.743.284-2.834.564-2.74.284-.757.092-.657 2.27-7.284.57-6.424-.945-6.431-2.271-7.56-4.155-3.395-5.857-3.404-4.442-4.54-.193-6.983 4.063-3.878 6.046.846 10.679 5.484 2.078-.375 8.127-5.862 3.687-.093 1.51-.761-.565-1.6 5.382.57 1.89 16.536 7.09 4.35 5.004-7.377 5.86-6.808 6.798-4.531zM20.696 500.564l-7.276 7.087-4.725 8.882-2.55-1.513-.472-.657.941.752-.94-.752-1.986-2.836-1.986-8.602L0 499.996l4.916-2.175 8.12-1.502 7.66.087 5.948-1.421 4.629-2.647v1.51l-3.78 4.636zM218.162 646.1l9.168 25.883 10.107 19.844-1.7.19-10.107-2.643-11.532-5.29-36.755-7.94-3.967-1.614h.096l3.21-5.76-5.198-5.384-6.231-4.54-.474-2.358.848-2.172.661-4.157.948-3.785 3.779-4.72 3.684-4.73 3.023-6.804 3.12-6.801 1.603-4.351 1.134-4.442.755-3.963 1.132-3.597 3.684-3.968 3.5-4.156 4.06-5.39 9.826 4.92 3.59 3.493 1.135 1.799.38 1.698-.284 1.604-1.23 1.61-4.247 5.573-1.04 5.864 1.603 5.95 3.682 6.234 4.537 6.622z"/>
        <path stroke="#AC5418" stroke-width=".75" d="m63.306 591.66-3.875-1.702-.098.097-3.209-7.373-1.414-2.17-1.61-.943-1.792-2.177-1.423-2.366-.564-1.602-.945-1.23-6.334-4.342-.566-.854-.377-1.036-.659-.856-1.323-.377-1.889.097-.946-.193-4.445-3.306-.659-1.605 1.418-2.831-3.593-3.219-2.173-4.625-5.198-21.927-2.077-5.006-3.688-2.64.665-.666.473-1.045-3.973-.092-3.775-.756-.566-.377 4.725-8.881 7.277-7.087 6.796-2.077 3.78-4.635v-1.51l.95-.47 6.421-5.01 6.522-2.27 5.955 2.93 12.846 16.726 1.797 3.781.755 4.249-.284 5.29-1.696 8.23.655 3.395 3.405 2.181 6.425-1.51 5.005-4.73 4.632-1.6 1.13 1.692-1.324 1.424-4.06 6.233-2.176 6.9-1.796 7.092-1.225 6.138 1.037 6.051 2.647 5.955 1.323 6.427-1.134 2.269-.941 2.64 1.132 2.653 1.225 2.74-.659 5.1-3.593 2.367-4.536 2.17-4.531 1.415z"/>
        <path stroke="#AC5418" stroke-width=".75" d="m132.087 659.317.477 5.013.278 3.497-.94-.193-3.593-2.166-4.82-1.234-3.968-1.982-3.682-2.549-1.986-2.463-.283-2.454.473-1.986.755-1.888.38-2.357-.853-1.515-4.155-1.893-1.702-1.23-.848-1.987-1.418-4.91-.66-1.794-1.703-1.799-1.609-.944-1.508-1.222-1.132-2.274 1.508-3.396-1.037-2.462-2.27-1.42-2.459-.573-1.794-.848.096-1.892.473-2.164-.57-1.427-1.603-.19-1.605.566-1.132.862-.473.471-18.141-6.142-4.629 1.416-1.135-3.407-1.795-11.433-1.229-2.45-1.512-2.186-.946-2.263.098-.096 3.875 1.702 3.871 1.132 4.532-1.414 4.536-2.17 3.593-2.367.658-5.1-1.224-2.74-1.132-2.653.94-2.64 1.134-2.27-1.323-6.427-2.646-5.954L75.21 553l1.225-6.138 1.797-7.092 2.175-6.9 4.06-6.232 1.325-1.424 4.35 6.055 2.079 4.818 1.7 2.547 2.555 1.045 8.214.748 3.122 1.613 5.476 5.761h.097l-1.795 2.46-5.675 4.818-4.246 6.52 2.743 1.989 3.776 1.509 1.51 4.819 1.894 4.91 7.748 3.878 8.027 4.154 1.99 2.462 1.697 2.364v2.644l-.377 1.796 1.606 3.213 3.023-.566 1.89 6.426L132 604.69l-10.866.19-11.053.752-9.636-.474-6.705 5.298 12.09 8.974 15.118-1.698 5.579 2.077 4.912 3.593-.57 8.316-3.21 6.998 3.307 7.554 4.532 6.898-1.037 3.12z"/>
        <path stroke="#AC5418" stroke-width=".75" d="m176.685 668.772-3.211 5.76h-.097l-8.973-3.584-15.589-.193-9.923-2.45-4.816-.19-1.234-.288-.278-3.497-.477-5.013 2.366-3.018 1.038-3.12-4.532-6.898-3.307-7.554 3.21-6.998.57-8.316-4.912-3.593-5.58-2.077 7.465-4.728 3.591-8.313 5.196-3.494-1.889-6.426 7.466-4.356 7.652-3.016 5.009-2.745 3.967 4.161 4.343.941 3.593-4.726 5.105-6.229.28-.193.375 1.041 9.927 2.547 3.588 3.03 3.307 3.59 4.159 3.307 2.642 1.318-4.06 5.39-3.5 4.156-3.684 3.968-1.132 3.597-.756 3.963-1.133 4.442-1.604 4.35-3.12 6.802-3.023 6.804-3.683 4.73-3.779 4.72-.948 3.785-.661 4.157-.848 2.172.473 2.357 6.232 4.54z"/>
        <path stroke="#AC5418" stroke-width=".75" d="m110.075 605.643 11.053-.752 10.866-.19-3.59 8.314-7.465 4.728-15.118 1.698-12.09-8.974 6.705-5.298zM105.912 555.089l5.675-4.819 1.795-2.46 1.798 1.048 1.98.374 1.986-.467 1.886-.956 1.895-.848 13.981-8.982 4.725-1.977 22.391-5.483 4.064-.095 4.723 1.886 3.968 2.847 1.61 2.922v3.877l-.572 5.76 1.609 10.495-.758 3.584-5.857 9.84-1.13 4.526 1.038 2.46-.28.193-5.106 6.225-3.593 4.73-4.343-.95-3.967-4.153-5.01 2.746-7.65 3.016-7.467 4.356-3.023.566-1.605-3.215.376-1.794v-2.644l-1.698-2.364-1.99-2.462-8.026-4.154-7.748-3.877-1.894-4.911-1.51-4.819-3.776-1.51-2.743-1.989zM22.15 488.054l-2.823-6.296 4.808-.164 4.642-.83.332 4.309-2.821 3.649zM378.03 242.109l-7.749-3.872-48.753-13.331-28.25 2.275-7.844 2.36-4.346.092-8.314-3.107 5.67-5.68 20.22-3.5 6.426-8.123-3.785-3.493-6.137-8.887-4.446-3.022v-1.698h4.918l9.164 2.17 5.101-.472 8.224-4.152 4.346-1.042 4.06 1.892 2.08 8.972 4.718 7.089 6.43 5.296 30.893 13.605 7.371 5.574.945 1.23.854 1.23 1.128 1.23 1.798 1.132 6.329 1.508 4.253 2.554 16.914 5.29 3.02 1.793 2.082 3.127.752 5.387-1.702-.382-11.243-5.289-4.723.184-6.427 3.78-3.876.94-1.132-.844-1.415-2.08-1.037-2.358-.477-1.895-.753-1.23-1.7-1.608zM115.06 304.55a16.896 16.896 0 0 1-.37-.762c-.053.034-.107.06-.163.093l.533.668zM115.359 304.926l-.3-.377c.092.173.203.336.34.503l-.04-.126z"/>
        <path d="M114.69 303.788c-.059-.124-.118-.248-.194-.38-.292-.52-.862-.891-1.353-1.257l1.386 1.73c.054-.033.108-.06.161-.093zM64.104 504.132l1.798 3.777.756 4.256-.282 5.29-1.704 8.217.657 3.408 3.402 2.172 6.428-1.513 5.007-4.722 4.633-1.605 1.132 1.698 4.344 6.045 2.082 4.828 1.698 2.55 2.554 1.038 8.22.756 3.115 1.609 5.48 5.761h.094l1.798 1.042 1.986.38 1.98-.473 1.89-.949 1.892-.853 13.978-8.975 4.725-1.977 18.363-4.497c-.113-2.803-.913-5.938-.549-7.677.62-2.959 2.517-4.743 2.947-7.608.245-1.613-.52-3.397-.135-5.172 1.076-4.932 3.283-6.708 1.55-12.156-3.183-9.97 2.132-11.385 8.054-18.8 2.442-3.056 5.41-8.802 9.25-12.684l-4.913-10.134-3.57-7.367-3.688-4.25-4.816-2.366-15.519-1.614c-1.09.005-2.164.018-3.223.018-5.876-.005-9.027-.505-13.687 3.772-4.178 3.827-4.874 5.16-10.75 5.204-5.975.058-12.064-1.128-18-.471-4.998.553-8.595 3.916-13.045 4.633-3.441.551-6.316-.525-9.39.38-1.02.3-2.064.82-3.154 1.697-3.906 3.126-5.48 8.028-7.917 11.809-2.824 4.384-6.92 6.85-11.792 8.425-6.373 2.07-8.663 2.235-11.541 7.9l5.016 2.47 12.846 16.728z" stroke="#AC5418" stroke-width=".75"/>
        <path d="m318.455 609.687-.284-.657-1.132-1.333-1.136-1.037-7.462-5.387-4.252-4.536-1.698-3.304-.944-3.683-1.234-3.311-2.834-2.363-12.564-5.665-5.67-4.445-2.36-7.184 2.266-5.95 5.482-3.4 12.753-2.466h.093l2.179-1.036 1.132-1.696.092-2.17-1.224-2.37.092-3.778 1.982-1.89 2.554-1.608 1.605-2.93-.566-3.775-2.076-2.934-2.936-1.888-2.834-.659-10.957 1.134-3.496-.663-2.547-1.89-4.162-5.671-2.454-1.983-5.95-.475-11.907 6.14-6.046 1.325-3.871-1.225-2.556-2.46-4.158-7.843-2.55-3.115-2.933-1.798-6.61-1.892-5.48-4.442-6.715-13.8-4.812-4.72-10.96-3.312-5.67-2.929-3.164-1.618-.71-.364-7.844-7.937-.679-1.4c-3.84 3.882-6.807 9.63-9.25 12.684-5.92 7.415-11.237 8.83-8.054 18.8 1.734 5.448-.473 7.225-1.55 12.157-.384 1.774.381 3.558.136 5.17-.429 2.867-2.327 4.65-2.947 7.61-.364 1.738.436 4.873.55 7.676l4.034-.993 4.064-.093 4.72 1.895 3.967 2.835 1.61 2.925v3.874l-.569 5.765 1.604 10.487-.755 3.592-5.857 9.83-1.132 4.53 1.039 2.466.378 1.038 9.924 2.555 3.592 3.015 3.302 3.597 4.159 3.302 2.643 1.318 9.83 4.92 3.59 3.5 1.133 1.796.377 1.697-.28 1.602-1.23 1.609-4.253 5.574-1.039 5.863 1.604 5.953 3.687 6.235 4.53 6.617 3.5 7.273 9.168 25.897 10.105 19.845-1.7.188-5.462-1.433c.94.566 1.845 1.091 2.706 1.542 4.17 2.204 8.112 3.38 12.065.25 5.02-4.003 5.397-4.747 12.306-4.482 9.097.342 17.14-2.67 26.433-1.919 5.92.486 13.595 2.142 18.833-.07l-5.282-11.466-.752-2.647-.096-2.736.284-2.843.564-2.734.288-.754.092-.664 2.266-7.275.572-6.428-.947-6.424-2.271-7.56-4.155-3.408-5.857-3.396-4.441-4.539-.19-6.996 4.061-3.871 6.052.852 10.676 5.477 2.075-.375 8.13-5.864 3.688-.09 1.505-.754-.566-1.604zM42.597 303.65c4.87 4.092 12.67 4.524 15.6-1.374 4.22-.182 4.473-6.124 4.22-9.46 2.791-.148 9.272 1.25 11.772-.068 2.418-1.266 1.997-3.88 3.42-6.07 3.396 2.976 5.729.218 9.795.87 2.934.47 6.702 3.318 8.884 5.788 1.12 1.268.676 2.93 2.466 4.041 1.61 1.003 3.623.238 5.317.904 5.143 2.048 4.196 3.813 9.788 1.07.113-.053.2-.088.304-.14.136.16.282.316.436.429.06.05.127.09.193.143l-.805-1-3.496-2.84-3.398-3.303-2.456-5.29v-9.735l4.438-7.653 6.805-5.574 7.082-3.408 13.416-6.519 4.632-5.193 3.307-9.363-.38-5.093-3.024-1.607-4.062-.292-3.587-1.134-2.745-2.834-7.462-9.543-4.629-3.684-1.609-.477-2.552-.661-2.173-2.355 1.513-7.377-1.043-5.39-4.816.57-1.604.757-8.125 4.065-4.067-.657-7.65-3.128-8.222-.946-2.833-2.36-2.743-2.93-3.497-2.172-5.76-5.862-2.84-1.601-.47 4.155-1.135 2.74-3.301-.38-3.78-2.45-2.27-3.882 1.89-7.274 17.197.66 5.953-4.344-.189-3.594-2.272-3.207-9.16-7.093-2.932-1.037H48.506l-2.927-1.225-1.043-2.842 1.795-4.81-2.875-6.099c-2.314 3.069-.026 7.924-1.546 11.456-2.167 5.029-9.4 2.206-12.052 6.54-.92 1.501-.163 5.16-1.219 6.138-2.186 2.018-5.933-1.392-8.004-.616-4.24 1.598-1.002 8.584-3.188 11.46 2.258 1.165 3.9 2.633 6.347 2.958 2.57 6.023 9.782 6.356 7.854 14.24-.773 3.13-3.231 4.602-3.04 7.383.172 2.489 4.756 4.56.733 6.945 2.24.962 5.608.622 7.462-1.464 1.334 1.82 1.535 4.083 2.407 6.045-1.96 1.882-5.096 2.907-7.878 2.87.29 1.165-.09 2.875.32 4.013-1.31.068-3.712-.405-4.917.055-1.232.481-2.325 2.955-3.431 3.156-4.031.7-4.577-4.007-6.73-5.865-.994 3.339-2.095 9.217-6.009 9.73-.794 3.556.516 3.875 2.806 5.839.609.516 2.407.328 3.009 1.117.75.965-.05 2.924.56 3.601 3.233 3.592 8.791.81 12.872-.893.865 3.17 2 9.263-2.66 9.754.1 3.598.364 11.117-1.87 13.294-1.642 1.61-4.96.217-5.102 3.237-.085 2.035 2.797 2.47 3.16 4.537-2.308.896-5.585.516-7.697 1.45-2.318 1.017-2.947 3.168-4.93 4.521-2.197 1.498-6.328 1.129-7.742 2.664-3.03 3.272 1.325 3.138 3.745 3.996.05.25.1.516.15.768.366.27.834-.033 1.242.143-.004.984.468 1.658.592 2.643 3.456-.124 6.013 6.077 5.636 8.982-.375 2.942-2.845 3.572-1.429 7.254.706 1.823 2.457 3.467 4.076 4.442-.16-1.513.414-2.491.508-3.928 4.194 2.513 2.159 3.553 7.294 1.778 2.286-.792 6.142.127 5.623-4.54 3.966 1.513 5.124-1.045 8.694 2.25 1.283 1.186 2.39 2.522 3.62 3.716-.246-.718-.313-1.555-.125-2.532z" stroke="#AC5418" stroke-width=".75"/>
        <path d="m210.648 382.222-.377-1.318-4.44-5.958-2.554-2.454-2.552-1.318-3.779.19-2.36.66-1.327.371-3.49-.187-7.369-8.03-.193-.284-40.63-23.057-10.297-9.635-5.672-12.013-1.416-2.73-3.682-2.367-1.607-1.799-.755-2.45-.472-5.008-.625-2.142a3.06 3.06 0 0 1-.341-.505l-.533-.666-1.385-1.735c-.064-.052-.131-.093-.193-.143a2.876 2.876 0 0 1-.436-.43c-.104.053-.193.088-.304.14-5.593 2.743-4.645.976-9.788-1.07-1.694-.665-3.708.1-5.317-.903-1.79-1.112-1.349-2.773-2.466-4.04-2.182-2.471-5.95-5.319-8.884-5.79-4.066-.654-6.399 2.107-9.795-.869-1.423 2.19-1.002 4.804-3.42 6.07-2.5 1.318-8.98-.08-11.772.068.253 3.336 0 9.277-4.22 9.46-2.93 5.898-10.73 5.466-15.6 1.373-.19.976-.12 1.815.134 2.537 1.41 3.917 8.457 4.63 11.474 6.994 2.05 1.604 3.4 3.516 5.434 4.451 3.071 1.415 5.801.357 9.238 1.101 5.126 1.108 6.574 7.382 11.443 10.018 3.612 1.963 4.356.703 7.207 4.51 1.939 2.588 2.75 4.917 4.26 7.633 2.274-3.004 5.041-.606 5.53 2.362 4.587-3.224 4.527 1.047 6.721 3.247.828.835 2.526 3.415 4.189 1.93 1.51-1.362-.882-2.504-.847-3.825.062-2.107 1.043-7.304 4.57-7.484 3.31-.164 7.098 7.909 8.304 10.402 1.786 3.671 2.288 7.246 5.4 10.158 2.703 2.538 7.532 4.689 10.414 6.402 7.783 4.655 17.007 9.786 12.636 21.244-1.726 4.516-4.5 5.342-2.845 10.413 1.431 4.399 4.014 7.835-.83 11.255-3.403 2.399-7.751 1.016-11.283 3.38-2.962 1.983-4.45 5-5.246 8.505-1.903 8.355-2.168 15.048-10.87 18.907-7.869 3.478-16.071 6.059-24.055 8.973-2.942 1.073-9.821 2.02-11.84 4.245-.891.985-1.157 2.466-1.09 4.089 3.073-.906 5.948.17 9.39-.38 4.451-.717 8.048-4.08 13.045-4.634 5.937-.657 12.026.53 18 .472 5.877-.043 6.573-1.377 10.75-5.205 4.66-4.278 7.812-3.777 13.688-3.772 1.06 0 2.138-.013 3.223-.018l-2.622-.275-5.575-2.454-.568-5.48 11.055-7.184 28.721 4.822 12.093-1.225 2.366-1.992 1.225-2.453 2.08-10.491.572-1.799 3.871-3.395 3.305-4.445 2.175-5.567 3.21-14.743.096-1.33-.097-1.33z" stroke="#AC5418" stroke-width=".75"/>
        <path stroke="#AC5418" stroke-width=".75" d="m197.943 294.084.666-5.007-3.971-7.09-6.616-6.241-7.37-6.14-5.482-9.073-1.132-4.717-2.171-3.784-3.215-3.778L165.44 244l-2.264 10.014.757 10.018.091 9.928-.848 10.675-1.321 6.992-4.256 4.534-4.346-2.077-4.157-3.404-4.06-2.645.467-6.23-3.582-4.921-5.395-2.263-6.512-.1-5.105-3.395-.945-7.471-1.134-2.549-7.084 3.403-6.81 5.566-4.434 7.657v9.737l2.459 5.292 3.396 3.308 3.498 2.83 3.023 3.785.665 2.264.468 5.012.759 2.458 1.601 1.798 3.69 2.363 1.412 2.734 5.67 12.01 10.301 9.63 40.624 23.056.193.29 1.51-4.162.096-3.4 1.696-2.554 1.234-4.722.19-5.578 1.887-4.529-1.513-4.544-2.36-3.775-2.079-3.969 3.118-14.648 12.37-7.657-1.126-2.547 1.127-2.648z"/>
    </g>
</svg>
